<?xml version="1.0" standalone="yes"?>

<svg version="1.1" viewBox="0.0 0.0 100.0 100.0" fill="none" stroke="none" stroke-linecap="square" stroke-miterlimit="10" xmlns="http://www.w3.org/2000/svg" xmlns:xlink="http://www.w3.org/1999/xlink"><clipPath id="p.0"><path d="m0 0l100.0 0l0 100.0l-100.0 0l0 -100.0z" clip-rule="nonzero"></path></clipPath><g clip-path="url(#p.0)"><path fill="#000000" d="m0 0l100.0 0l0 100.0l-100.0 0z" fill-rule="nonzero"></path><path fill="#000000" fill-opacity="0.0" d="m11.328084 20.170603l77.73228 0l0 54.614174l-77.73228 0z" fill-rule="nonzero"></path><path stroke="#ffffff" stroke-width="1.0" stroke-linejoin="round" stroke-linecap="butt" d="m11.328084 20.170603l77.73228 0l0 54.614174l-77.73228 0z" fill-rule="nonzero"></path><path fill="#ffffff" d="m35.421833 56.07394l0.875 6.0l1.28125 -5.40625l9.0 -31.750002l5.0625 0l8.78125 31.750002l1.25 5.5l0.96875 -6.125l7.062504 -31.125002l6.03125 0l-11.03125 45.5l-5.468754 0l-9.375 -33.156246l-0.71875 -3.46875l-0.71875 3.46875l-9.71875 33.156246l-5.46875 0l-11.0 -45.5l6.0 0l7.1875 31.156252z" fill-rule="nonzero"></path></g></svg>

