<?xml version="1.0" encoding="UTF-8" standalone="no"?>
<svg width="269px" height="70px" viewBox="0 0 269 70" version="1.1" xmlns="http://www.w3.org/2000/svg" xmlns:xlink="http://www.w3.org/1999/xlink">
    <!-- Generator: Sketch 42 (36781) - http://www.bohemiancoding.com/sketch -->
    <title>ailaring_logo</title>
    <desc>Created with Sketch.</desc>
    <defs>
        <polygon id="path-1" points="0.0191780822 0.213515982 0.0191780822 58.4621461 269.064977 58.4621461 269.064977 0.213515982 0.0191780822 0.213515982"></polygon>
    </defs>
    <g id="Page-1" stroke="none" stroke-width="1" fill="none" fill-rule="evenodd">
        <g id="ailaring_logo">
            <g id="Group-4" transform="translate(0.000000, 0.639269)">
                <mask id="mask-2" fill="white">
                    <use xlink:href="#path-1"></use>
                </mask>
                <g id="Clip-2"></g>
                <path d="M240.560274,27.3457078 C240.550685,27.9453425 240.553562,29.112968 240.558995,30.5557991 C254.304566,39.2249315 264.147078,49.0345205 269.064977,58.4621461 C265.312466,48.3514612 255.54411,37.179589 240.560274,27.3457078 Z M69.69379,8.83086758 L69.69379,13.0589954 C87.7819178,7.37716895 110.099452,3.69849315 137.872511,3.69849315 C169.07653,3.69881279 196.764247,9.9703653 218.803699,19.2931507 C219.356667,19.1918265 219.919543,19.106484 220.495525,19.0451142 C222.344932,18.8475799 224.229498,18.890411 226.067397,19.1109589 C203.62968,8.07173516 173.425479,0.213835616 136.985525,0.213515982 C109.350548,0.213515982 87.3584018,3.6409589 69.69379,8.83086758 Z M43.5236986,23.956621 C49.4922374,20.7650685 56.1243379,17.7761644 63.5251598,15.1267123 L63.5251598,10.7720091 C56.0581735,13.2792237 49.4302283,16.1006393 43.5236986,19.0869863 L43.5236986,23.956621 Z M4.77789954,54.9576712 C11.9249315,46.8923288 21.4474886,37.4889954 34.9408676,28.95379 L34.9408676,23.8214155 C23.6516895,30.5947945 15.4763927,37.7785845 9.20707763,43.8305479 L4.77789954,54.9576712 L4.77789954,54.9576712 Z" id="Fill-1" fill="#E67649" mask="url(#mask-2)"></path>
                <path d="M19.0048402,9.65968037 L0,55.0925571 L0,55.0931963 L4.7986758,55.0931963 L9.96205479,43.4147032 L11.5816438,37.3665753 L20.8612785,14.906484 L20.8615982,14.9061644 L25.6746575,26.7221005 C26.7358447,25.983105 27.8328311,25.2476256 28.9525114,24.5140639 L22.7803653,9.65968037 L19.0048402,9.65968037" id="Fill-3" fill="#E67649" mask="url(#mask-2)"></path>
            </g>
            <path d="M32.7238813,34.2306393 C31.5926941,35.0022374 30.4953881,35.7792694 29.4223744,36.5604566 L30.0111416,38.0055251 L36.9213242,55.7318265 L41.6576712,55.7318265 L32.7238813,34.2306393" id="Fill-5" fill="#E67649"></path>
            <polyline id="Fill-6" fill="#454849" points="36.9945205 10.3344292 36.9945205 40.7607763 41.4703653 51.5021005 41.4703653 10.3344292 36.9945205 10.3344292"></polyline>
            <path d="M65.5385388,9.2703653 L67.6417352,9.2703653 L67.6417352,50.1177626 C67.6417352,51.350274 68.0240183,52.3273973 68.7885845,53.0491324 C69.5534703,53.7718265 70.5510502,54.1323744 71.7835616,54.1323744 C72.2508676,54.1323744 72.8134247,54.0796347 73.4728311,53.9731963 C74.1306393,53.8677169 74.7360274,53.7082192 75.2886758,53.4953425 L75.7984932,55.2795434 C75.1614612,55.4924201 74.3649315,55.6838813 73.4085845,55.852968 C72.4528767,56.0220548 71.6342922,56.1080365 70.9553881,56.1080365 C69.340274,56.1080365 68.0339269,55.6090868 67.036347,54.6102283 C66.0374886,53.6126484 65.5385388,52.26379 65.5385388,50.563653 L65.5385388,9.2703653" id="Fill-7" fill="#454849"></path>
            <path d="M130.728356,38.45621 C130.600822,36.3753881 130.154932,34.4524658 129.390046,32.6890411 C128.62516,30.926895 127.615753,29.4073516 126.363105,28.132968 C125.109498,26.8582648 123.664749,25.8603653 122.029817,25.1376712 C120.393927,24.4159361 118.641689,24.0544292 116.772466,24.0544292 C114.902922,24.0544292 113.150365,24.4159361 111.515434,25.1376712 C109.879224,25.8603653 108.445662,26.8582648 107.21379,28.132968 C105.981279,29.4073516 104.993607,30.926895 104.250776,32.6890411 C103.506986,34.4524658 103.09274,36.3753881 103.008037,38.45621 L130.728356,38.45621 Z M89.2432877,54.5785845 C91.919589,54.5785845 94.373105,54.0796347 96.6038356,53.0810959 C98.8339269,52.0831963 100.500822,50.7340183 101.606119,49.0345205 C102.157808,48.2699543 102.498219,47.5268037 102.625753,46.8041096 C102.073105,45.7426027 101.658858,44.5954338 101.383014,43.3629224 C101.10621,42.1310502 100.947032,40.8994977 100.90516,39.6666667 C98.1013242,38.7745662 95.1478995,38.3286758 92.0474429,38.3286758 C90.3047945,38.3286758 88.7117352,38.520137 87.2682648,38.9024201 C85.8231963,39.2843836 84.5807763,39.8162557 83.5400457,40.4951598 C82.4986758,41.1753425 81.6919178,41.992968 81.1184932,42.9486758 C80.5453881,43.9047032 80.2580365,44.9780365 80.2580365,46.166758 C80.2580365,47.356758 80.4913699,48.4607763 80.9589954,49.4807306 C81.4259817,50.5000457 82.063653,51.3921461 82.8710502,52.157032 C83.6771689,52.9215982 84.6232877,53.5173973 85.7068493,53.9415525 C86.7900913,54.3666667 87.9689041,54.5785845 89.2432877,54.5785845 Z M88.9249315,56.4267123 C87.4373516,56.4267123 86.0351142,56.1607763 84.7191781,55.6301826 C83.4016438,55.0992694 82.2544749,54.3775342 81.2779909,53.463379 C80.2999087,52.5501826 79.5353425,51.4781279 78.9839726,50.2452968 C78.4310046,49.0137443 78.1554795,47.6754338 78.1554795,46.2306849 C78.1554795,44.8287671 78.4949315,43.5441553 79.1747945,42.3752511 C79.8540183,41.2073059 80.7998174,40.1988584 82.0109132,39.3483105 C83.2216895,38.4990411 84.6651598,37.8409132 86.3438813,37.372968 C88.0216438,36.9059817 89.8589041,36.6716895 91.8559817,36.6716895 C93.3854338,36.6716895 94.9359817,36.7896347 96.5082648,37.0223288 C98.0792694,37.2563014 99.5447945,37.56379 100.90516,37.9463927 C101.032374,35.8652511 101.478904,33.8899087 102.24347,32.0200457 C101.733653,29.556621 100.596393,27.6020548 98.8339269,26.1573059 C97.0708219,24.713516 94.8512785,23.9908219 92.1746575,23.9908219 C90.559863,23.9908219 88.8392694,24.3411416 87.0131963,25.0421005 C85.1861644,25.7430594 83.3380365,26.7527854 81.4691324,28.0690411 L80.5134247,26.4759817 C84.7610502,23.5874429 88.6909589,22.1423744 92.3025114,22.1423744 C95.1060274,22.1423744 97.4850685,22.8017808 99.4393151,24.1180365 C101.392922,25.4352511 102.79484,27.283379 103.645068,29.6621005 C105.004475,27.4109132 106.831507,25.5947489 109.125845,24.2136073 C111.419863,22.8334247 113.96895,22.1423744 116.772466,22.1423744 C119.023653,22.1423744 121.126849,22.5889041 123.081416,23.4810046 C125.035023,24.373105 126.734521,25.5947489 128.179589,27.1449772 C129.623059,28.6961644 130.770228,30.5126484 131.620776,32.5934703 C132.469726,34.6755708 132.89484,36.9059817 132.89484,39.2843836 C132.89484,39.3275342 132.884292,39.4758447 132.862877,39.7309132 C132.841142,39.9856621 132.831233,40.1349315 132.831233,40.1768037 L103.008037,40.1768037 C103.135571,42.2160731 103.602557,44.1175799 104.409954,45.8800457 C105.216393,47.64379 106.258082,49.1620548 107.532466,50.4364384 C108.806849,51.7108219 110.261826,52.7205479 111.897397,53.463379 C113.532648,54.2071689 115.284886,54.5785845 117.155068,54.5785845 C118.34379,54.5785845 119.522603,54.4194064 120.691826,54.1007306 C121.859452,53.7820548 122.953881,53.3259361 123.973836,52.7307763 C124.993151,52.1359361 125.885251,51.4244292 126.650137,50.5959361 C127.414703,49.7674429 128.03,48.8654338 128.497945,47.8873516 L130.473607,48.3971689 C130.005662,49.5443379 129.315571,50.6176712 128.402374,51.6152511 C127.488539,52.61379 126.436941,53.463379 125.2479,54.1643379 C124.0579,54.8652968 122.76274,55.4179452 121.360822,55.8213242 C119.958904,56.2243836 118.514155,56.4267123 117.027215,56.4267123 C114.223699,56.4267123 111.663744,55.736621 109.34863,54.3557991 C107.032557,52.9752968 105.152785,51.1373973 103.708995,48.8430594 C103.028813,50.2034247 102.125845,51.3601826 101.000731,52.3165297 C99.8743379,53.2722374 98.6427854,54.0479909 97.3047945,54.6421918 C95.966484,55.2376712 94.5645662,55.6838813 93.0990411,55.9805023 C91.6331963,56.2771233 90.2411872,56.4267123 88.9249315,56.4267123 L88.9249315,56.4267123 Z" id="Fill-8" fill="#454849"></path>
            <path d="M155.00653,24.6917808 C151.947626,24.8189954 149.29242,25.7858904 147.041233,27.5908676 C144.788767,29.3974429 143.217443,31.8506393 142.325342,34.9514155 L142.325342,55.7893607 L140.158539,55.7893607 L140.158539,22.6525114 L142.261735,22.6525114 L142.261735,31.0640183 C143.408265,28.7281279 144.938037,26.8163927 146.849772,25.3288128 C148.761507,23.8425114 150.800457,22.9708676 152.96758,22.7161187 C153.391416,22.6742466 153.784566,22.6525114 154.146073,22.6525114 L155.00653,22.6525114 L155.00653,24.6917808" id="Fill-9" fill="#454849"></path>
            <polygon id="Fill-10" fill="#454849" points="161.251233 55.7893607 163.418037 55.7893607 163.418037 22.6525114 161.251233 22.6525114"></polygon>
            <path d="M200.186575,55.7893607 L198.019772,55.7893607 L198.019772,37.3090411 C198.019772,32.7638356 197.371872,29.4389954 196.076393,27.3361187 C194.779635,25.233242 192.730776,24.1816438 189.926941,24.1816438 C188.439361,24.1816438 186.95274,24.4584475 185.465799,25.010137 C183.978219,25.563105 182.608584,26.3276712 181.355616,27.3044749 C180.102009,28.2819178 178.997991,29.4290868 178.041963,30.7453425 C177.086256,32.0625571 176.395205,33.5076256 175.97105,35.0786301 L175.97105,55.7893607 L173.804247,55.7893607 L173.804247,22.6525114 L175.907443,22.6525114 L175.907443,30.9368037 C176.586347,29.6202283 177.436575,28.4193607 178.45653,27.3361187 C179.475845,26.2528767 180.622694,25.3288128 181.897397,24.5639269 C183.1721,23.7993607 184.52,23.2051598 185.944292,22.779726 C187.366986,22.3555708 188.821644,22.1423744 190.309224,22.1423744 C193.791963,22.1423744 196.309087,23.3851142 197.860594,25.870274 C199.410502,28.3557534 200.186575,32.083653 200.186575,37.0542922 L200.186575,55.7893607" id="Fill-11" fill="#454849"></path>
            <path d="M223.955251,54.3874429 C225.442192,54.3874429 226.896849,54.1007306 228.320822,53.5273059 C229.743516,52.9535616 231.028767,52.2110502 232.175616,51.2965753 C233.323105,50.3836986 234.267626,49.3640639 235.011735,48.2379909 C235.754566,47.1125571 236.190548,45.9759361 236.317763,44.8287671 L236.317763,33.4216438 C235.808265,32.1053881 235.096119,30.8728767 234.183242,29.7260274 C233.269087,28.5788584 232.239543,27.6020548 231.092694,26.7946575 C229.945845,25.9882192 228.712694,25.3505479 227.396438,24.8829224 C226.079224,24.4159361 224.740913,24.1816438 223.382146,24.1816438 C221.256895,24.1816438 219.367215,24.6278539 217.710228,25.520274 C216.053562,26.4123744 214.651324,27.5812785 213.504475,29.0250685 C212.357306,30.4694977 211.486301,32.0945205 210.891781,33.8998174 C210.296301,35.7060731 209.99968,37.5222374 209.99968,39.3483105 C209.99968,41.3457078 210.359909,43.2465753 211.082922,45.0515525 C211.804977,46.8581279 212.792648,48.4511872 214.046256,49.8310502 C215.298584,51.2121918 216.775297,52.3165297 218.475114,53.1447032 C220.173653,53.9731963 222.000685,54.3874429 223.955251,54.3874429 Z M223.636575,56.3627854 C221.342557,56.3627854 219.217945,55.8740639 217.264338,54.8972603 C215.309772,53.9204566 213.632009,52.6348858 212.230091,51.0418265 C210.828174,49.4487671 209.733744,47.6322831 208.948082,45.5933333 C208.161461,43.5543836 207.769269,41.473242 207.769269,39.3483105 C207.769269,37.0968037 208.140685,34.9411872 208.884475,32.8801826 C209.626986,30.820137 210.678584,28.993105 212.03863,27.4000457 C213.397717,25.8066667 215.02274,24.5322831 216.913699,23.5765753 C218.803379,22.6205479 220.896667,22.1423744 223.190685,22.1423744 C224.634155,22.1423744 225.994521,22.3555708 227.269224,22.779726 C228.543607,23.2051598 229.732329,23.7785845 230.837945,24.5003196 C231.941963,25.2233333 232.961598,26.0726027 233.89653,27.0494064 C234.830502,28.0271689 235.680731,29.0675799 236.445616,30.1719178 L236.445616,22.6525114 L238.484886,22.6525114 L238.484886,56.8086758 C238.484886,59.0601826 238.07032,61.0035616 237.242146,62.6397717 C236.413653,64.2747032 235.308356,65.6446575 233.928493,66.7499543 C232.547032,67.8542922 230.943425,68.6719178 229.117352,69.2034703 C227.29,69.7340639 225.378584,70 223.382146,70 C221.42726,70 219.695479,69.8088584 218.188082,69.4265753 C216.679726,69.0442922 215.352283,68.5124201 214.205753,67.833516 C213.058584,67.1533333 212.048539,66.3357078 211.178493,65.38 C210.307169,64.4242922 209.55347,63.3726941 208.916438,62.2255251 L210.509498,61.3334247 C211.868584,63.7121461 213.695616,65.4327397 215.989954,66.4952055 C218.283973,67.5563927 220.747078,68.0879452 223.382146,68.0879452 C225.166347,68.0879452 226.832922,67.8542922 228.384429,67.3873059 C229.934658,66.9193607 231.304932,66.2084932 232.494612,65.2524658 C233.683333,64.2964384 234.618584,63.1179452 235.298447,61.7157078 C235.977671,60.31379 236.317763,58.6778995 236.317763,56.8086758 L236.317763,49.0345205 C235.6379,50.1398174 234.820594,51.1373973 233.864247,52.0294977 C232.908539,52.9215982 231.878356,53.686484 230.774018,54.323516 C229.668402,54.9608676 228.511644,55.4607763 227.300868,55.8213242 C226.090091,56.1815525 224.868447,56.3627854 223.636575,56.3627854 L223.636575,56.3627854 Z" id="Fill-12" fill="#454849"></path>
            <path d="M164.422009,11.7417808 L162.637489,10.7109589 C162.458493,10.6080365 162.238265,10.6080365 162.059269,10.7109589 L160.274749,11.7414612 C160.095753,11.8450228 159.985479,12.0355251 159.985479,12.2420091 L159.985479,14.3033333 C159.985479,14.5094977 160.095753,14.7003196 160.274749,14.8035616 L162.059269,15.8340639 C162.238265,15.9373059 162.458493,15.9373059 162.637489,15.8340639 L164.422009,14.8038813 C164.601005,14.7003196 164.710959,14.5094977 164.710959,14.3033333 L164.710959,12.2420091 C164.710959,12.0355251 164.601005,11.8450228 164.422009,11.7417808" id="Fill-13" fill="#E67649"></path>
        </g>
    </g>
</svg>