<?xml version="1.0" encoding="utf-8"?>
<!-- Generator: Adobe Illustrator 17.1.0, SVG Export Plug-In . SVG Version: 6.00 Build 0)  -->
<!DOCTYPE svg PUBLIC "-//W3C//DTD SVG 1.1//EN" "http://www.w3.org/Graphics/SVG/1.1/DTD/svg11.dtd">
<svg version="1.1" id="Layer_1" xmlns="http://www.w3.org/2000/svg" xmlns:xlink="http://www.w3.org/1999/xlink" x="0px" y="0px"
	 viewBox="0 0 595.3 841.9" enable-background="new 0 0 595.3 841.9" xml:space="preserve">
<g>
	<path fill="#7E7E7E" d="M295.7,245.4c0.8,0.3,1.6,0.5,2.5,0.5c0.9,0,1.7-0.2,2.5-0.5c2.9-1,4.9-3.7,4.9-7c0-4.1-3.3-7.4-7.4-7.4
		c-4.1,0-7.4,3.3-7.4,7.4C290.7,241.7,292.8,244.4,295.7,245.4z"/>
	<path fill="#7E7E7E" d="M492.5,249H103.9v239.9h320.3c0,0,29.5-0.9,27.8-20.1c-0.7-8.5-12.9-21.2-51.9-28.8
		C400.1,440.1,482.7,376,492.5,249z M154.4,294.1h266.9c4.7,0,8.4,3.3,8.4,7.4c0,4.1-3.8,7.4-8.4,7.4H154.4c-4.7,0-8.4-3.3-8.4-7.4
		C146,297.4,149.8,294.1,154.4,294.1z M309.6,417.7H154.4c-4.7,0-8.4-3.3-8.4-7.4c0-4.1,3.8-7.4,8.4-7.4h155.2
		c4.7,0,8.4,3.3,8.4,7.4C318.1,414.4,314.3,417.7,309.6,417.7z M154.4,363.4c-4.7,0-8.4-3.3-8.4-7.4c0-4.1,3.8-7.4,8.4-7.4h266.9
		c4.7,0,8.4,3.3,8.4,7.4c0,4.1-3.8,7.4-8.4,7.4H154.4z"/>
	<path fill="#7E7E7E" d="M25.2,148.1V694h545.9V148.1L25.2,148.1L25.2,148.1z M386.8,613.3H209.6c-8.1,0-14.7-6.6-14.7-14.7
		c0-4.2,1.8-8,4.6-10.6c2.8-3.3,7.7-7.7,13.7-14.9c9.2-11.1,11.9-32.5,12.6-47h144.9c0.7,14.5,3.4,36,12.6,47
		c8.3,10.1,14.7,14.5,16,18.2c1.2,2.3,2.2,4.6,2.2,7.3C401.5,606.7,394.9,613.3,386.8,613.3z M512.7,499c0,5.6-4.5,10.1-10.1,10.1
		H93.8c-5.6,0-10.1-4.5-10.1-10.1V238.9c0-5.6,4.5-10.1,10.1-10.1h408.8c5.6,0,10.1,4.5,10.1,10.1V499z"/>
</g>
</svg>
