<?xml version="1.0" encoding="UTF-8" standalone="no"?>
<svg width="302px" height="26px" viewBox="0 0 302 26" version="1.1" xmlns="http://www.w3.org/2000/svg" xmlns:xlink="http://www.w3.org/1999/xlink" xmlns:sketch="http://www.bohemiancoding.com/sketch/ns">
    <!-- Generator: Sketch 3.4 (15575) - http://www.bohemiancoding.com/sketch -->
    <title>7-fjell</title>
    <desc>Created with Sketch.</desc>
    <defs></defs>
    <g id="Page-1" stroke="none" stroke-width="1" fill="none" fill-rule="evenodd" sketch:type="MSPage">
        <g id="7-fjell" sketch:type="MSLayerGroup">
            <path d="M88.5428371,14.7273001 C86.5328027,14.7099743 84.921005,14.8843683 83.1866729,15.3280219 C81.8988842,15.6580639 80.517722,15.3856799 79.2184457,15.6259686 C78.1215278,15.8307537 77.0514142,16.0193491 75.8905782,15.8091675 C74.4001365,15.5390557 73.1032167,14.6182329 71.8775788,14.0950511 C70.0846305,13.3287402 68.2613432,12.1948956 66.4177317,11.8520723 C64.4501131,11.4870947 62.8150456,11.3666663 60.8303429,11.392229 C58.8309125,11.4177916 57.9825979,11.314689 56.2718301,10.245603 C55.8344179,9.97094671 55.3922928,9.8999394 54.9304327,9.74571153 C54.3787336,9.56166059 53.9174625,9.06943794 53.4391074,8.67605747 C53.1472047,8.43576874 52.8111189,8.27273596 52.4714985,8.12617688 C52.1657518,7.99523941 51.8276042,7.95803158 51.5144936,7.85436091 C51.2225909,7.75722292 50.9533688,7.56692334 50.658226,7.48057845 C49.4240461,7.12156551 48.3185861,6.48534004 47.0416959,6.40155142 C46.0720252,6.33707679 45.0307779,6.13967648 44.0996937,5.80679422 C43.7170685,5.66989213 43.4298787,5.328489 43.0672831,5.16772846 C42.8619792,5.07683911 42.6920217,5.1262602 42.4796485,5.08962043 C42.1892186,5.04019934 41.9076252,4.88000686 41.6219082,4.80047867 C40.6775691,4.53633149 39.7064256,4.5130411 38.7429405,4.52042586 C38.4047928,4.52269809 37.892564,4.66130435 37.5924138,4.42726427 C37.3140605,4.20969788 37.1311427,3.70895436 36.9016854,3.41754037 C36.4910776,2.89719883 35.9906309,2.43565134 35.5093301,2.00790332 C35.2963678,1.81873986 35.1467346,1.59634497 34.9440816,1.42649549 C34.7172753,1.23562785 34.4115286,1.13536554 34.1605688,1.00045165 C33.8253667,0.820661154 33.6003277,0.553389652 33.250987,0.420179945 C32.9799977,0.315941219 32.6571668,0.225903954 32.3991378,0.154328589 C31.848617,0.00237295339 31.2441928,0.280721595 30.685719,0.423304267 C30.3466877,0.510501239 29.9025008,0.688019506 29.5787863,0.835998733 C28.9708275,1.11434737 28.5178039,1.73239497 27.8677239,1.92099038 C27.5926108,2.00080259 27.2577033,1.90991324 26.9764045,1.95592597 C26.650039,2.0096075 26.0641717,2.20047514 25.8046699,2.48620854 C25.5534157,2.76427315 25.4376561,3.30336062 25.2668149,3.64675196 C25.1101124,3.96287648 24.9121723,4.27474058 24.7012718,4.53547941 C24.5363218,4.74026448 24.3560549,4.90613755 24.2149637,5.12796437 C24.0921348,5.3216723 23.9949321,5.6443295 23.840586,5.82809641 C23.7469179,5.93915184 23.624089,5.96954297 23.5401412,6.09167554 C23.2888869,6.4606295 23.3693001,6.50777835 22.9295314,6.52169578 C22.6756262,6.52993263 22.4202481,6.53788545 22.1678156,6.58105789 C21.6971188,6.66143816 21.2629467,6.87502814 20.8379057,7.13349474 C20.0399598,7.61946874 19.7642576,8.43548471 19.0446629,8.98025277 C16.0172402,11.2703804 12.3300172,11.8549126 9.04073619,13.3500424 C7.37120591,14.1092525 5.7025593,15.0527976 4.36499103,16.5416788 C3.5187383,17.4840878 2.93905665,18.6736022 2.31754838,19.8384061 C1.79589381,20.8157506 0.264214648,22.6209197 0.188514357,23.6708346 L0.188514357,25.6078919 L88.9846676,25.6078917 L88.9846676,14.7332647 C88.8394526,14.7304245 88.6927649,14.7281522 88.5428371,14.7273001 L88.5428371,14.7273001 Z" id="Shape" fill="#DAD9D9" sketch:type="MSShapeGroup"></path>
            <path d="M100.778597,24.8506698 L100.778597,25.6078917 L186.276338,25.6078917 L186.276338,19.2967623 L185.862196,19.2967623 C185.812122,18.7607992 185.511382,18.3554895 185.177064,17.884285 C184.436556,16.84417 182.592944,16.1940271 181.524009,15.5072444 C180.892191,15.1033548 180.296309,14.4659932 179.525462,14.2390539 C178.894234,14.0538668 178.233255,13.9200891 177.618227,13.744275 C177.04532,13.579538 176.366374,13.7158721 175.800831,13.5335253 C175.291548,13.3679363 174.931014,13.2213772 174.372835,13.1398608 C173.796982,13.0563562 173.235563,13.073966 172.652052,12.9918816 C172.242328,12.9347917 171.642911,12.6902425 171.231125,12.5036353 C170.795186,12.3068031 170.550117,12.0582775 170.059685,11.8790551 C169.509753,11.6776783 168.982208,11.5623625 168.441996,11.3283224 C167.93448,11.1087678 167.539484,11.0559384 167.000156,10.9854991 C166.442566,10.9127876 166.088807,10.5639997 165.550363,10.4452755 C164.148876,10.1356837 162.84312,9.60767333 161.456067,9.28416404 C161.313503,9.25093262 161.179775,9.21429285 161.039568,9.18361769 C160.930877,9.1603273 160.826016,9.1137465 160.716737,9.08591164 C160.62248,9.06205318 160.527339,9.07994703 160.428369,9.06972197 C160.32881,9.05978095 160.250458,9.00695151 160.148248,8.98195694 C159.999793,8.94531717 159.850749,8.89049953 159.701116,8.87203763 C159.50671,8.84817918 159.343233,8.79165736 159.152362,8.84477083 C159.060462,8.87090152 158.978576,8.91805037 158.88314,8.93139974 C158.822757,8.93963659 158.795069,8.93594421 158.739987,8.95753043 C158.654861,8.99076185 158.587408,9.03194609 158.495508,9.05523648 C158.184164,9.1350487 157.874883,9.18390172 157.554998,9.21656508 C157.494614,9.2225297 157.436587,9.21145256 157.377087,9.206056 C157.192402,9.18844619 157.000942,9.20151153 156.815079,9.19384275 C156.702265,9.18873022 156.598287,9.19895527 156.489008,9.17112041 C156.380907,9.1438536 156.270449,9.09556863 156.158813,9.08562761 C156.016838,9.07227824 155.866027,9.08562761 155.723168,9.08562761 C155.581193,9.08562761 155.437746,9.1049416 155.29636,9.08562761 C155.143192,9.06404139 155.016239,8.99786258 154.860715,8.98848961 C154.443627,8.96292698 154.038616,8.8581202 153.618582,8.92259483 C153.398845,8.95639431 153.181465,8.96519922 152.961138,8.98792156 C152.817396,9.00297511 152.678072,9.05324828 152.529028,9.05324828 C152.107227,9.0515441 151.688077,9.04103502 151.268633,9.02001686 C151.14492,9.01433627 151.031517,8.95838252 150.914285,8.93906853 C150.651248,8.89589609 150.368477,8.95412208 150.101611,8.92287886 C149.658603,8.87061749 149.179953,8.88453492 148.740479,8.80642688 C148.514261,8.7658107 148.288928,8.74763283 148.057114,8.72661467 C147.966981,8.71894588 147.883917,8.70502845 147.794667,8.69281519 C147.421173,8.63856561 147.089211,8.50706008 146.731623,8.39884494 C146.392886,8.29574233 145.960186,8.26677135 145.611435,8.24745736 C145.318943,8.2312677 145.039706,8.18241467 144.751927,8.14151446 C144.457374,8.10004619 144.179609,8.10828304 143.887118,8.0261986 C143.123635,7.81204056 142.480624,7.50869735 141.690631,7.31328524 C141.134219,7.17638315 140.46352,7.13349474 139.893853,7.07924516 C139.318001,7.02385946 138.826096,6.61428931 138.24288,6.61372125 C137.657896,6.61258514 137.14714,6.95001186 136.582481,7.04090121 C135.982475,7.13803921 135.362145,7.17354286 134.757721,7.26670445 C133.918537,7.3965058 133.178913,7.75040622 132.308212,7.81914129 C132.260789,7.81346071 132.216312,7.80096342 132.166827,7.80238357 C132.107621,7.8046558 132.049594,7.82283367 131.989505,7.81999338 C131.885822,7.81431279 131.783318,7.79499881 131.68258,7.77114035 C131.481989,7.7239915 131.287878,7.65412031 131.086993,7.60924369 C130.452524,7.48654307 129.817761,7.38912104 129.209213,7.29084693 C128.701108,7.2419939 128.600076,7.46240058 128.193887,7.53596415 C127.990645,7.57260392 127.803897,7.53823639 127.607725,7.48256666 C127.510817,7.45529985 127.413908,7.4266129 127.314644,7.40701488 C127.199768,7.38429254 127.169429,7.43314557 127.075466,7.49023545 C127.017439,7.52630716 126.958528,7.53908847 126.881355,7.54363294 C126.698143,7.55471008 126.491366,7.57345601 126.31699,7.54363294 C126.124941,7.51096958 125.944086,7.45444776 125.751447,7.40502668 C125.504611,7.3411201 125.253357,7.36242229 125.00711,7.2973796 C124.455411,7.15082052 123.975583,7.27238503 123.425062,7.19200476 C123.068063,7.13974338 122.685733,7.17269077 122.3143,7.13860726 C121.74699,7.08634589 121.166719,7.04942209 120.597053,7.07271248 C120.329009,7.08378962 120.087769,7.15536499 119.830035,7.12753012 C119.373182,7.0786771 118.915151,6.98210716 118.455647,7.0758368 C118.187898,7.13008639 117.914258,7.16360184 117.640912,7.17354286 C117.498937,7.17865538 117.355784,7.17695121 117.213514,7.16416989 C117.147829,7.15848931 117.081849,7.15025246 117.017047,7.13860726 C116.98877,7.13349474 116.954602,7.11986134 116.926325,7.12042939 C116.89304,7.12156551 116.856221,7.13860726 116.822053,7.14258367 C116.816456,7.14315173 116.811154,7.14428785 116.805263,7.14485591 C116.751065,7.14996843 116.705704,7.1681463 116.657986,7.18376791 C116.619105,7.19711728 116.573744,7.1982534 116.533684,7.20762637 C116.499222,7.21529516 116.468588,7.23262094 116.434125,7.24028973 C116.41115,7.24540225 116.389059,7.25420716 116.364905,7.2584676 C116.227054,7.2857344 116.124844,7.39394954 115.971676,7.41042323 C115.818508,7.42774902 115.643249,7.41638785 115.489197,7.41326353 C115.324836,7.40985518 115.184039,7.38060016 115.014966,7.38060016 C114.687717,7.38060016 114.353104,7.45501582 114.057666,7.57317198 C113.435274,7.82169755 112.711556,7.7657438 112.036144,7.70638169 C111.323324,7.64361123 110.507705,7.54988158 109.804606,7.70694975 C109.561599,7.76119933 109.311228,7.79954327 109.058207,7.82226561 C108.894435,7.8367511 108.767777,7.85606509 108.620794,7.89100068 C108.251424,7.97819766 107.854366,8.07135924 107.503552,8.2128058 C107.393095,8.25711436 107.360988,8.29716248 107.230206,8.31051185 C107.04994,8.32925778 106.915623,8.35112803 106.763633,8.39912897 C106.665252,8.43008816 106.526812,8.4295201 106.413409,8.45337855 C106.261125,8.48547386 106.126514,8.55988951 105.981593,8.58886049 C105.793079,8.62663638 105.603386,8.58942855 105.413988,8.58942855 C105.225769,8.58999661 105.065237,8.66611644 104.881435,8.68599849 C104.595718,8.71695767 104.305877,8.70701665 104.019277,8.73144317 C103.580981,8.76978711 103.146809,8.81125538 102.708218,8.84306665 C102.215724,8.87800225 101.734718,9.00723554 101.239574,9.01234807 C101.009233,9.01518836 100.787434,9.08789984 100.567108,9.11005412 C100.368578,9.13050423 100.186544,9.1322084 99.996557,9.17509682 C99.8165847,9.21514494 99.7096618,9.28814045 99.5450062,9.35545538 C99.4139299,9.4091369 99.25546,9.42049807 99.129391,9.46906707 C98.5158357,9.70424327 97.8368894,9.7153204 97.1862203,9.71475235 C96.6165535,9.71475235 96.1432058,9.81359452 95.5859102,9.92209368 C95.2875273,9.98031967 95.0188944,9.95986957 94.728759,10.1061446 C94.5970935,10.1720394 94.4884032,10.2893435 94.355854,10.3481375 C94.2182974,10.4097719 94.0654241,10.3901738 93.9184418,10.3975586 C93.7431824,10.4057955 93.55997,10.3887537 93.3944308,10.3813689 C93.0247659,10.3640432 92.8830856,10.4944126 92.5991358,10.6619898 C92.4665867,10.7406659 92.4059086,10.8233184 92.3107678,10.9366461 C92.1782186,11.0937142 92.1216643,11.0803649 91.9425757,11.0459973 C91.5720272,10.97499 91.1060432,10.8440526 90.7354947,10.9477232 C90.5269507,11.0059492 90.3410873,11.0343521 90.1272413,11.0343521 C89.8689178,11.0337841 89.6415223,11.0343521 89.3855552,11.0082214 C89.1393083,10.9826588 88.9484375,11.100815 88.728995,11.18858 C88.5119089,11.275777 88.1823034,11.2817416 87.9328164,11.295091 C87.6509285,11.3101445 87.4152856,11.3998977 87.1510709,11.4743134 C87.0247074,11.509249 86.8650593,11.558102 86.7475324,11.6220086 C86.3498849,11.840143 86.0806628,12.2122213 85.7124707,12.4658594 C85.5575355,12.5735065 85.3728503,12.685414 85.1922889,12.7672144 C85.0155567,12.8470267 84.8506067,12.8788379 84.679471,12.9802364 C84.5875702,13.0356221 84.4547265,13.1046412 84.3781426,13.1762165 C81.4962293,15.9028971 82.7150925,20.3618719 86.1578359,22.3046318 C88.416179,23.5782189 91.8942689,23.7020556 94.4138811,24.1252592 C96.5016776,24.4763193 98.6333626,24.6975781 100.778597,24.8506698 L100.778597,24.8506698 L100.778597,24.8506698 Z" id="Shape" fill="#EDEDED" sketch:type="MSShapeGroup"></path>
            <path d="M181.227393,25.6078917 C181.322829,25.4363381 181.404715,25.2417781 181.466571,25.0094422 C182.082188,22.7034089 180.361995,21.0412698 178.839741,19.5469921 C177.498638,18.2316527 175.087717,17.7985082 173.265018,17.5587875 C172.69653,17.4906205 171.985477,17.5587875 171.417872,17.5587875 C170.28119,17.5587875 169.854676,17.2165323 168.859968,16.805542 C168.006941,16.4632868 167.154797,16.5314538 166.301475,16.1891986 C165.236074,15.7782083 164.738278,15.435385 163.530903,15.3666499 C160.689049,15.2303159 157.20713,14.7503065 154.436558,15.7782083 C153.512543,16.1891986 153.157017,17.0108951 152.37586,17.6278066 C151.594115,18.2447181 150.883651,18.6557084 150.173188,19.3407869 C148.965518,20.5740418 147.331334,21.7382776 145.697445,22.4923751 C145.55547,22.5778679 145.435586,22.6764261 145.336616,22.7852093 C145.245599,22.8860397 145.174317,22.996527 145.118647,23.1141151 L145.116879,23.0925289 C144.358698,24.4334309 142.925989,24.9841636 141.5625,25.6081758 L181.227393,25.6081758 L181.227393,25.6078917 L181.227393,25.6078917 Z" id="Shape" fill="#DAD9D9" sketch:type="MSShapeGroup"></path>
            <path d="M301.622971,19.3691898 C301.248594,18.9965434 300.853303,18.6352583 300.471266,18.2685765 C299.966107,17.7848748 299.202035,17.7360217 298.587301,17.3869498 C297.906293,17.0015221 297.132795,16.718061 296.379916,16.4212504 C295.876523,16.2238501 295.396696,15.8963644 294.865026,15.8571684 C294.40022,15.8228009 293.881217,15.9648155 293.39756,15.9060214 C292.98165,15.8560323 292.564562,15.6498271 292.168093,15.4700366 C291.678544,15.2476417 291.105637,15.07552 290.655559,14.7897866 C290.224627,14.5156984 290.006658,14.4225368 289.514753,14.2455866 C289.059078,14.0836899 288.582196,13.9359947 288.078804,13.8340282 C287.393672,13.695422 286.880559,13.6494092 286.231952,13.3903746 C285.761255,13.200643 285.335625,13.0194324 284.826637,12.8853706 C284.280534,12.7416518 283.624858,12.7033079 283.079933,12.5141444 C282.909092,12.4542142 282.807177,12.3295254 282.649001,12.237784 C282.507026,12.1551315 282.405111,12.150587 282.274624,12.0841242 C281.974768,11.9304643 281.852823,11.6220086 281.583011,11.4532952 C281.175055,11.198237 280.566507,10.9778303 280.076958,10.848597 C279.767972,10.7665126 279.590945,10.712547 279.336451,10.5546268 C279.029231,10.362055 278.782395,10.3898898 278.447488,10.2833789 C278.200062,10.2047028 278.028043,10.0760375 277.690485,10.041954 C277.309627,10.0047462 276.964999,10.0570076 276.635982,9.83887312 C276.279867,9.60312886 276.108437,9.41169316 275.69076,9.30035371 C275.286337,9.19270663 274.968809,9.16828012 274.610337,8.94929358 C274.27484,8.74394045 274.017695,8.41276237 273.670416,8.23268784 C273.310177,8.04579661 272.820629,8.17616603 272.495736,8.00347626 C272.381154,7.94240997 272.327251,7.75892709 272.205306,7.68564755 C271.867158,7.4819986 271.22562,7.44053033 270.835042,7.42831707 C270.484818,7.41667188 270.126346,7.45217553 269.802926,7.30561645 C269.573469,7.20137772 269.416766,6.98324328 269.146366,6.93382219 C268.490984,6.8133938 267.770211,6.82617512 267.094799,6.79123952 C266.556944,6.76340466 266.144864,6.80118054 265.652665,6.59639547 C265.084176,6.36008315 264.504494,6.2691938 263.883575,6.18796144 C263.455,6.13200769 262.995201,6.19847052 262.563386,6.15586614 C261.852922,6.08599495 261.183107,5.9533533 260.456738,5.90165998 C259.193397,5.81247481 257.849938,6.01697585 256.584535,5.86786051 C256.002791,5.79969349 255.502934,5.66250737 254.915594,5.66250737 C252.69083,5.66193932 250.450749,5.59604454 248.225396,5.73294662 C246.62214,5.83178879 245.018001,5.65909902 243.41828,5.73351468 C241.905158,5.80395393 240.398516,6.10417282 238.880975,6.12121458 C238.272427,6.12831531 237.684498,6.15671823 237.079779,6.15671823 C236.417033,6.15671823 235.699501,6.14904944 235.042057,6.21096781 C234.462081,6.26521739 233.905374,6.43904328 233.306841,6.43904328 C232.511841,6.43904328 231.783999,6.29816478 230.99754,6.29816478 C230.124778,6.29816478 229.242295,6.33594067 228.389267,6.33310038 C227.678215,6.33082814 227.025778,6.47454693 226.31178,6.47454693 C225.705294,6.47454693 225.092033,6.45068848 224.486431,6.47454693 C224.068165,6.49130466 223.712638,6.68472856 223.307627,6.72193639 C223.07169,6.74352261 222.954457,6.65149714 222.748564,6.58872668 C222.352095,6.46659411 221.885522,6.50721029 221.476681,6.58048983 C221.028665,6.66087011 220.607454,6.86338294 220.147655,6.9261534 C219.775929,6.97671061 219.40214,6.88837752 219.029824,6.92331311 C218.686964,6.95540841 218.410672,7.03976509 218.056324,7.03749286 C217.24041,7.03181227 216.424791,7.01477052 215.609467,6.98920789 C214.009451,6.93978681 212.410908,6.85827042 210.81266,6.76851718 C209.648289,6.70347449 208.594965,6.66967501 207.448857,6.44784819 C206.312763,6.22772554 205.127479,6.15330988 203.956334,6.12064652 C203.298301,6.10246865 202.671785,6.0436746 202.027302,6.0135675 C200.689734,5.95193316 199.217554,5.47703629 197.933595,6.02350852 C197.721811,6.11326176 197.674093,6.19449412 197.412235,6.22772554 C197.249936,6.24760758 197.095884,6.24050685 196.935941,6.27032992 C196.621947,6.33026009 196.372755,6.5344771 196.081147,6.64808879 C195.734162,6.78357073 195.350064,6.83838837 194.986291,6.91763253 C194.531205,7.01761081 193.996885,7.30107198 193.53149,7.2167153 C193.231045,7.16303378 192.884355,7.04430956 192.615133,7.00369338 C192.210122,6.94205904 191.756804,7.0437415 191.351793,6.97046196 C191.013056,6.90939568 190.674614,6.68472856 190.337055,6.65036102 C189.866948,6.60264411 189.360315,6.66967501 188.884906,6.62366228 C188.513768,6.58759056 188.028933,6.56770852 187.669872,6.65916593 C187.35735,6.73841008 187.226863,6.90939568 186.973252,7.08236948 C186.579139,7.3507771 186.007411,7.85407689 185.509026,7.85180465 C185.130524,7.84953242 184.752023,7.85180465 184.373521,7.85180465 C183.764384,7.85180465 183.15672,7.75637083 182.546994,7.79187448 C182.021216,7.82226561 181.609724,8.10743095 181.201473,8.42582772 C181.001765,8.5811917 180.821793,8.7658107 180.598521,8.87232166 C180.178488,9.07199421 179.726348,8.97712845 179.317213,9.08534358 C179.037092,9.15919118 178.749902,9.31995172 178.439737,9.39834379 C177.430597,9.65198189 176.295681,9.90647207 175.399943,10.4651576 C174.790806,10.7917912 174.429978,11.334571 173.903022,11.7432891 C173.714802,11.8892801 173.465315,11.9406894 173.289172,12.0855443 C173.058536,12.2752758 173.011408,12.5766308 172.8117,12.7851083 C172.544245,13.0634569 172.339825,13.2083118 171.94424,13.268242 C171.219932,13.3773092 170.50829,13.1654234 170.041717,13.6922976 C169.809904,13.9530365 169.572199,14.2941556 169.355407,14.5500659 C169.161591,14.7781414 169.210487,14.7497384 168.955109,14.9178837 C168.775137,15.0354718 168.624325,15.0831888 168.441996,15.2547424 C168.088237,15.5881927 167.790149,15.7645749 167.404284,16.009124 C167.072322,16.2198737 166.965399,16.5260572 166.655823,16.786228 C166.185715,17.1801765 165.719731,17.1279152 165.110594,17.1279152 C164.85286,17.1279152 164.527672,17.077926 164.276418,17.1279152 C163.96802,17.1884134 163.915001,17.3270196 163.67111,17.4945969 C163.389222,17.6883048 162.999822,17.7803303 162.727066,17.9882397 C162.232805,18.3648624 161.758279,18.9019617 161.192147,19.2697795 L161.033971,19.3112478 C161.03456,19.3879357 160.796266,19.4271317 160.755618,19.5131926 C160.52999,19.9897936 159.32556,20.3025098 158.916425,20.6970264 C158.389468,21.2051547 157.994177,21.840244 157.46781,22.2847498 C156.743502,22.8562166 156.08488,22.79231 155.228613,23.0465162 C154.43862,23.3637768 153.648332,23.8719051 152.924025,24.3800334 C152.365551,24.7904556 151.817681,25.1915049 151.288957,25.6070396 L301.426209,25.6070396 C301.496313,25.5144461 301.561999,25.425545 301.624739,25.3406202 L301.624739,19.3691898 L301.622971,19.3691898 L301.622971,19.3691898 Z" id="Shape" fill="#CDCDCD" sketch:type="MSShapeGroup"></path>
            <path d="M130.750613,25.6078917 C130.142065,24.4595616 128.514066,24.2587529 127.261919,23.5103359 C126.398876,22.9934027 125.677809,22.2642997 124.747019,21.9609565 C123.545535,21.5698482 122.080425,21.7894028 120.833285,21.7894028 C117.809396,21.7894028 114.937793,20.5723376 112.026129,19.8506193 C111.110362,19.62368 108.536552,19.6324849 106.635502,18.991999 C105.940356,18.7579589 105.576287,18.1703024 104.945059,17.7311932 C103.123244,17.1568861 101.203638,16.3408702 99.2645911,15.8639851 C98.0793071,15.5739913 96.6642712,15.6143234 95.5028461,14.6645297 C94.7770658,14.5057573 94.2931141,14.1365193 93.3732229,13.5034182 C92.3926537,13.3923628 91.4353542,13.7229728 90.5661263,13.5034182 C90.0076525,13.3611196 89.5502107,12.5516363 89.1136821,12.0764554 C88.3879018,11.285434 87.3004096,10.9991325 86.267999,10.4572047 C85.2635709,9.93033053 84.2034722,10.0016219 83.1410171,9.43356341 C82.1195049,8.8882273 81.2087449,7.81033638 80.1783961,7.31896582 C78.3819132,6.46290173 76.0455134,8.27642834 73.4619831,7.57317198 C71.7079159,7.09543482 72.3736072,7.59703044 70.7694679,8.11850809 C68.6360155,8.81125538 64.2230123,9.28302792 62.0044339,9.90022343 C60.2589088,10.3861974 59.5728933,11.5893452 57.8465141,12.1818302 C55.1280782,13.1160023 53.3934515,11.654956 48.55364,13.9078758 C45.4307818,15.3612534 42.4873069,17.0049305 39.0021477,18.1305383 C36.2622093,19.0147213 34.4795705,21.7896868 31.9864681,23.1831342 C31.0076662,23.7301745 30.419737,23.9125213 30.0995572,25.1551491 C30.0618543,25.3017082 30.0385846,25.4536639 30.0229732,25.6078917 L130.750613,25.6078917 L130.750613,25.6078917 L130.750613,25.6078917 Z" id="Shape" fill="#D4D4D4" sketch:type="MSShapeGroup"></path>
            <path d="M301.811486,17.9440198 C301.784681,17.1279152 301.582323,15.8307537 301.035337,15.357561 C300.654479,15.027519 300.156978,15.1141479 299.751377,14.7877984 C299.264185,14.3961221 298.670954,14.1569694 298.095691,14.1649223 C297.339866,14.1737272 296.589638,14.7574072 295.861796,14.9565117 C295.19905,15.1385745 294.564581,15.3180809 293.890348,15.3609693 C292.959558,15.4197634 292.229949,16.2019799 291.310647,16.2852004 C290.910348,16.3207041 290.558062,16.2590697 290.179561,16.2303828 C289.833166,16.2042521 289.515637,16.4607305 289.1769,16.465559 C288.913864,16.4701035 288.619899,16.4067649 288.34508,16.407333 C287.949789,16.4079011 287.67556,16.2752594 287.289989,16.2752594 C286.713548,16.2752594 286.175103,16.2281106 285.611917,16.1874944 C285.092324,16.1497185 284.582157,16.3794981 284.063743,16.2795199 C283.325591,16.1375052 282.651947,15.4461781 281.94708,15.2178186 C281.628373,15.1141479 281.281978,14.9991161 280.951194,15.0002522 C280.527331,15.0019564 280.147062,15.1916879 279.731447,15.2232152 C279.056035,15.2754765 278.370904,15.1084674 277.671928,15.2198068 C276.777957,15.3635256 275.967935,15.7935458 275.085452,15.9227791 C274.75349,15.9716322 274.422117,15.9284597 274.098697,16.0014552 C273.061868,16.2371995 272.005893,16.3226923 270.973188,16.6155264 C270.106316,16.8623478 269.220888,17.2418109 268.313663,17.2418109 C267.543405,17.2418109 266.77462,17.1875613 266.00554,17.1642709 C265.690368,17.1548979 265.482118,17.243515 265.189332,17.3312801 C264.853246,17.4321105 264.493301,17.311398 264.153681,17.330144 C263.761335,17.3528663 263.528343,17.466478 263.147486,17.6729672 C262.473841,18.0385129 261.700049,18.6449153 261.005786,18.6943363 C260.662925,18.7187628 260.288842,18.6221929 259.968073,18.7769888 C259.545683,18.9795017 259.188684,19.1746298 258.753039,19.2663712 C258.377483,19.3456154 258.04611,19.5131926 257.684104,19.662876 C256.88498,19.9940541 256.107063,20.2005433 255.317365,20.5998884 C254.953297,20.7839394 254.515295,20.7441753 254.12943,20.7941644 C253.590397,20.8628995 253.07375,21.1526093 252.524407,21.1114251 C252.203933,21.0875666 251.881102,21.0469504 251.559155,21.023092 C250.406861,20.9398714 249.294626,21.334388 248.150579,21.3309796 C247.529955,21.3292755 246.989743,21.810705 246.362638,21.8584219 C245.641277,21.9132396 244.943479,21.8584219 244.224768,21.8163856 C244.076313,21.8075807 243.925501,21.7842903 243.777635,21.7859945 C243.584997,21.7871306 243.393832,21.8075807 243.201194,21.8075807 C243.077481,21.8075807 242.915771,21.7749173 242.810027,21.8825644 C242.764076,21.9297133 242.7087,21.9547078 242.663928,22.004697 C242.617388,22.0563903 242.613265,22.1268295 242.577624,22.1827833 C242.509876,22.2921345 242.362894,22.2694122 242.275117,22.2782171 C242.134615,22.2921345 241.994407,22.2875901 241.853905,22.2776491 C241.440941,22.2486781 241.11163,22.0674674 240.741965,21.8311551 C240.557869,21.713567 240.504849,21.6391514 240.294833,21.6391514 C240.132534,21.6391514 239.968762,21.664714 239.813826,21.5948428 C239.648582,21.5209952 239.518684,21.4190287 239.337533,21.4195968 C239.202333,21.4195968 239.06242,21.4266975 238.932522,21.4369225 C238.738706,21.45084 238.596436,21.5212792 238.417642,21.6110325 C238.043264,21.7996279 237.636486,21.7164073 237.263581,21.5883101 C237.134566,21.5434335 237.027054,21.6388673 236.900691,21.6621577 C236.708642,21.6965253 236.683899,21.4974208 236.549877,21.3582464 C236.435296,21.2383861 236.237945,21.285535 236.100094,21.266789 C235.916587,21.2412264 235.724538,21.2500313 235.546627,21.3312637 C235.393459,21.4005668 235.26415,21.5121903 235.106564,21.5780851 C234.939258,21.6496604 234.796399,21.6834599 234.603172,21.6834599 C233.876508,21.6834599 233.091817,21.4377746 232.423475,22.0180463 C232.158376,22.248394 231.799904,22.1052433 231.516249,22.2816255 C231.348943,22.38416 231.186644,22.5079968 231.019043,22.5832645 C230.849969,22.6599524 230.673237,22.6792664 230.505341,22.7880496 C230.39724,22.8573527 230.290611,22.9721005 230.184277,23.044812 C230.074409,23.1209318 229.902979,23.0948011 229.769546,23.0854282 C229.634346,23.0760552 229.504448,23.0382793 229.375433,23.0078882 C229.068803,22.9340406 228.803704,22.8636013 228.490005,23.0019236 C228.351859,23.0635579 228.228146,23.1638202 228.072328,23.199892 C227.88234,23.2430644 227.687935,23.2155136 227.495297,23.2442005 C227.301481,23.2731715 227.088518,23.4038249 226.909135,23.5083477 C226.58925,23.6946709 226.290572,24.1545142 225.950068,24.2118881 C225.706767,24.2525043 225.464055,24.2073436 225.220459,24.2118881 C225.011031,24.2158645 224.805138,24.2777829 224.59571,24.2777829 C224.317357,24.2777829 224.036648,24.2601731 223.758589,24.2772148 C223.426627,24.2976649 223.092308,24.3803174 222.769772,24.4325788 C222.565646,24.4646741 222.347971,24.4487685 222.150031,24.5192077 C221.961811,24.5868067 221.743842,24.5856705 221.562102,24.6950218 C221.463721,24.7538158 221.397447,24.8364684 221.291702,24.8864575 C220.971816,25.0389812 220.637498,25.0034775 220.304358,25.0034775 L218.432764,25.0034775 C217.89373,25.0034775 217.347039,24.959737 216.814486,25.0688043 C216.519932,25.1298705 216.243641,25.289495 215.974419,25.4772383 C215.920221,25.5144461 215.873092,25.561595 215.826553,25.6093119 L301.811486,25.5797728 C301.811486,25.5797728 301.833577,19.0394318 301.811486,17.9440198 L301.811486,17.9440198 Z" id="Shape" fill="#B3B3B3" sketch:type="MSShapeGroup"></path>
            <path d="M84.6900749,25.6078917 C83.6941889,25.0537507 82.6912336,24.5061424 81.6193528,24.1127619 C78.5374376,23.1220679 75.3412356,23.0115806 72.2584367,21.801048 C68.833661,20.3698247 65.0660249,19.3791308 61.412381,18.1680302 C56.6179307,16.7368069 52.0511704,16.4067649 47.1415496,15.9668037 C42.8808306,15.5845003 38.6351338,14.9826424 34.3484941,14.9559437 C30.6206227,14.9326533 26.7557838,15.2814412 23.0508876,15.6339214 C21.774881,15.7549179 20.447033,15.6367617 19.1704373,15.7708235 C16.721518,16.028722 14.1002848,17.0739496 12.2322253,18.6355423 C9.39832436,21.0049141 4.95233107,21.4343663 2.1310959,23.8929233 C1.44861501,24.4873964 0.718416433,25.0355728 0,25.6078917 L84.6900749,25.6078917 L84.6900749,25.6078917 L84.6900749,25.6078917 Z" id="Shape" fill="#B3B3B3" sketch:type="MSShapeGroup"></path>
        </g>
    </g>
</svg>