<?xml version="1.0" encoding="UTF-8" standalone="no"?>
<svg width="300px" height="25px" viewBox="0 0 300 25" version="1.1" xmlns="http://www.w3.org/2000/svg" xmlns:xlink="http://www.w3.org/1999/xlink" xmlns:sketch="http://www.bohemiancoding.com/sketch/ns">
    <!-- Generator: Sketch 3.3.2 (12043) - http://www.bohemiancoding.com/sketch -->
    <title>7-fjell</title>
    <desc>Created with Sketch.</desc>
    <defs></defs>
    <g id="Page-1" stroke="none" stroke-width="1" fill="none" fill-rule="evenodd" sketch:type="MSPage">
        <g id="7-fjell" sketch:type="MSArtboardGroup">
            <path d="M87.5428371,14.7273001 C85.5328027,14.7099743 83.921005,14.8843683 82.1866729,15.3280219 C80.8988842,15.6580639 79.517722,15.3856799 78.2184457,15.6259686 C77.1215278,15.8307537 76.0514142,16.0193491 74.8905782,15.8091675 C73.4001365,15.5390557 72.1032167,14.6182329 70.8775788,14.0950511 C69.0846305,13.3287402 67.2613432,12.1948956 65.4177317,11.8520723 C63.4501131,11.4870947 61.8150456,11.3666663 59.8303429,11.392229 C57.8309125,11.4177916 56.9825979,11.314689 55.2718301,10.245603 C54.8344179,9.97094671 54.3922928,9.8999394 53.9304327,9.74571153 C53.3787336,9.56166059 52.9174625,9.06943794 52.4391074,8.67605747 C52.1472047,8.43576874 51.8111189,8.27273596 51.4714985,8.12617688 C51.1657518,7.99523941 50.8276042,7.95803158 50.5144936,7.85436091 C50.2225909,7.75722292 49.9533688,7.56692334 49.658226,7.48057845 C48.4240461,7.12156551 47.3185861,6.48534004 46.0416959,6.40155142 C45.0720252,6.33707679 44.0307779,6.13967648 43.0996937,5.80679422 C42.7170685,5.66989213 42.4298787,5.328489 42.0672831,5.16772846 C41.8619792,5.07683911 41.6920217,5.1262602 41.4796485,5.08962043 C41.1892186,5.04019934 40.9076252,4.88000686 40.6219082,4.80047867 C39.6775691,4.53633149 38.7064256,4.5130411 37.7429405,4.52042586 C37.4047928,4.52269809 36.892564,4.66130435 36.5924138,4.42726427 C36.3140605,4.20969788 36.1311427,3.70895436 35.9016854,3.41754037 C35.4910776,2.89719883 34.9906309,2.43565134 34.5093301,2.00790332 C34.2963678,1.81873986 34.1467346,1.59634497 33.9440816,1.42649549 C33.7172753,1.23562785 33.4115286,1.13536554 33.1605688,1.00045165 C32.8253667,0.820661154 32.6003277,0.553389652 32.250987,0.420179945 C31.9799977,0.315941219 31.6571668,0.225903954 31.3991378,0.154328589 C30.848617,0.00237295339 30.2441928,0.280721595 29.685719,0.423304267 C29.3466877,0.510501239 28.9025008,0.688019506 28.5787863,0.835998733 C27.9708275,1.11434737 27.5178039,1.73239497 26.8677239,1.92099038 C26.5926108,2.00080259 26.2577033,1.90991324 25.9764045,1.95592597 C25.650039,2.0096075 25.0641717,2.20047514 24.8046699,2.48620854 C24.5534157,2.76427315 24.4376561,3.30336062 24.2668149,3.64675196 C24.1101124,3.96287648 23.9121723,4.27474058 23.7012718,4.53547941 C23.5363218,4.74026448 23.3560549,4.90613755 23.2149637,5.12796437 C23.0921348,5.3216723 22.9949321,5.6443295 22.840586,5.82809641 C22.7469179,5.93915184 22.624089,5.96954297 22.5401412,6.09167554 C22.2888869,6.4606295 22.3693001,6.50777835 21.9295314,6.52169578 C21.6756262,6.52993263 21.4202481,6.53788545 21.1678156,6.58105789 C20.6971188,6.66143816 20.2629467,6.87502814 19.8379057,7.13349474 C19.0399598,7.61946874 18.7642576,8.43548471 18.0446629,8.98025277 C15.0172402,11.2703804 11.3300172,11.8549126 8.04073619,13.3500424 C6.37120591,14.1092525 4.7025593,15.0527976 3.36499103,16.5416788 C2.5187383,17.4840878 1.93905665,18.6736022 1.31754838,19.8384061 C0.795893805,20.8157506 -0.735785352,22.6209197 -0.811485643,23.6708346 L-0.811485643,25.6078919 L87.9846676,25.6078917 L87.9846676,14.7332647 C87.8394526,14.7304245 87.6927649,14.7281522 87.5428371,14.7273001 Z" id="Shape" fill="#DAD9D9" sketch:type="MSShapeGroup"></path>
            <path d="M99.7785971,24.8506698 L99.7785971,25.6078917 L185.276338,25.6078917 L185.276338,19.2967623 L184.862196,19.2967623 C184.812122,18.7607992 184.511382,18.3554895 184.177064,17.884285 C183.436556,16.84417 181.592944,16.1940271 180.524009,15.5072444 C179.892191,15.1033548 179.296309,14.4659932 178.525462,14.2390539 C177.894234,14.0538668 177.233255,13.9200891 176.618227,13.744275 C176.04532,13.579538 175.366374,13.7158721 174.800831,13.5335253 C174.291548,13.3679363 173.931014,13.2213772 173.372835,13.1398608 C172.796982,13.0563562 172.235563,13.073966 171.652052,12.9918816 C171.242328,12.9347917 170.642911,12.6902425 170.231125,12.5036353 C169.795186,12.3068031 169.550117,12.0582775 169.059685,11.8790551 C168.509753,11.6776783 167.982208,11.5623625 167.441996,11.3283224 C166.93448,11.1087678 166.539484,11.0559384 166.000156,10.9854991 C165.442566,10.9127876 165.088807,10.5639997 164.550363,10.4452755 C163.148876,10.1356837 161.84312,9.60767333 160.456067,9.28416404 C160.313503,9.25093262 160.179775,9.21429285 160.039568,9.18361769 C159.930877,9.1603273 159.826016,9.1137465 159.716737,9.08591164 C159.62248,9.06205318 159.527339,9.07994703 159.428369,9.06972197 C159.32881,9.05978095 159.250458,9.00695151 159.148248,8.98195694 C158.999793,8.94531717 158.850749,8.89049953 158.701116,8.87203763 C158.50671,8.84817918 158.343233,8.79165736 158.152362,8.84477083 C158.060462,8.87090152 157.978576,8.91805037 157.88314,8.93139974 C157.822757,8.93963659 157.795069,8.93594421 157.739987,8.95753043 C157.654861,8.99076185 157.587408,9.03194609 157.495508,9.05523648 C157.184164,9.1350487 156.874883,9.18390172 156.554998,9.21656508 C156.494614,9.2225297 156.436587,9.21145256 156.377087,9.206056 C156.192402,9.18844619 156.000942,9.20151153 155.815079,9.19384275 C155.702265,9.18873022 155.598287,9.19895527 155.489008,9.17112041 C155.380907,9.1438536 155.270449,9.09556863 155.158813,9.08562761 C155.016838,9.07227824 154.866027,9.08562761 154.723168,9.08562761 C154.581193,9.08562761 154.437746,9.1049416 154.29636,9.08562761 C154.143192,9.06404139 154.016239,8.99786258 153.860715,8.98848961 C153.443627,8.96292698 153.038616,8.8581202 152.618582,8.92259483 C152.398845,8.95639431 152.181465,8.96519922 151.961138,8.98792156 C151.817396,9.00297511 151.678072,9.05324828 151.529028,9.05324828 C151.107227,9.0515441 150.688077,9.04103502 150.268633,9.02001686 C150.14492,9.01433627 150.031517,8.95838252 149.914285,8.93906853 C149.651248,8.89589609 149.368477,8.95412208 149.101611,8.92287886 C148.658603,8.87061749 148.179953,8.88453492 147.740479,8.80642688 C147.514261,8.7658107 147.288928,8.74763283 147.057114,8.72661467 C146.966981,8.71894588 146.883917,8.70502845 146.794667,8.69281519 C146.421173,8.63856561 146.089211,8.50706008 145.731623,8.39884494 C145.392886,8.29574233 144.960186,8.26677135 144.611435,8.24745736 C144.318943,8.2312677 144.039706,8.18241467 143.751927,8.14151446 C143.457374,8.10004619 143.179609,8.10828304 142.887118,8.0261986 C142.123635,7.81204056 141.480624,7.50869735 140.690631,7.31328524 C140.134219,7.17638315 139.46352,7.13349474 138.893853,7.07924516 C138.318001,7.02385946 137.826096,6.61428931 137.24288,6.61372125 C136.657896,6.61258514 136.14714,6.95001186 135.582481,7.04090121 C134.982475,7.13803921 134.362145,7.17354286 133.757721,7.26670445 C132.918537,7.3965058 132.178913,7.75040622 131.308212,7.81914129 C131.260789,7.81346071 131.216312,7.80096342 131.166827,7.80238357 C131.107621,7.8046558 131.049594,7.82283367 130.989505,7.81999338 C130.885822,7.81431279 130.783318,7.79499881 130.68258,7.77114035 C130.481989,7.7239915 130.287878,7.65412031 130.086993,7.60924369 C129.452524,7.48654307 128.817761,7.38912104 128.209213,7.29084693 C127.701108,7.2419939 127.600076,7.46240058 127.193887,7.53596415 C126.990645,7.57260392 126.803897,7.53823639 126.607725,7.48256666 C126.510817,7.45529985 126.413908,7.4266129 126.314644,7.40701488 C126.199768,7.38429254 126.169429,7.43314557 126.075466,7.49023545 C126.017439,7.52630716 125.958528,7.53908847 125.881355,7.54363294 C125.698143,7.55471008 125.491366,7.57345601 125.31699,7.54363294 C125.124941,7.51096958 124.944086,7.45444776 124.751447,7.40502668 C124.504611,7.3411201 124.253357,7.36242229 124.00711,7.2973796 C123.455411,7.15082052 122.975583,7.27238503 122.425062,7.19200476 C122.068063,7.13974338 121.685733,7.17269077 121.3143,7.13860726 C120.74699,7.08634589 120.166719,7.04942209 119.597053,7.07271248 C119.329009,7.08378962 119.087769,7.15536499 118.830035,7.12753012 C118.373182,7.0786771 117.915151,6.98210716 117.455647,7.0758368 C117.187898,7.13008639 116.914258,7.16360184 116.640912,7.17354286 C116.498937,7.17865538 116.355784,7.17695121 116.213514,7.16416989 C116.147829,7.15848931 116.081849,7.15025246 116.017047,7.13860726 C115.98877,7.13349474 115.954602,7.11986134 115.926325,7.12042939 C115.89304,7.12156551 115.856221,7.13860726 115.822053,7.14258367 C115.816456,7.14315173 115.811154,7.14428785 115.805263,7.14485591 C115.751065,7.14996843 115.705704,7.1681463 115.657986,7.18376791 C115.619105,7.19711728 115.573744,7.1982534 115.533684,7.20762637 C115.499222,7.21529516 115.468588,7.23262094 115.434125,7.24028973 C115.41115,7.24540225 115.389059,7.25420716 115.364905,7.2584676 C115.227054,7.2857344 115.124844,7.39394954 114.971676,7.41042323 C114.818508,7.42774902 114.643249,7.41638785 114.489197,7.41326353 C114.324836,7.40985518 114.184039,7.38060016 114.014966,7.38060016 C113.687717,7.38060016 113.353104,7.45501582 113.057666,7.57317198 C112.435274,7.82169755 111.711556,7.7657438 111.036144,7.70638169 C110.323324,7.64361123 109.507705,7.54988158 108.804606,7.70694975 C108.561599,7.76119933 108.311228,7.79954327 108.058207,7.82226561 C107.894435,7.8367511 107.767777,7.85606509 107.620794,7.89100068 C107.251424,7.97819766 106.854366,8.07135924 106.503552,8.2128058 C106.393095,8.25711436 106.360988,8.29716248 106.230206,8.31051185 C106.04994,8.32925778 105.915623,8.35112803 105.763633,8.39912897 C105.665252,8.43008816 105.526812,8.4295201 105.413409,8.45337855 C105.261125,8.48547386 105.126514,8.55988951 104.981593,8.58886049 C104.793079,8.62663638 104.603386,8.58942855 104.413988,8.58942855 C104.225769,8.58999661 104.065237,8.66611644 103.881435,8.68599849 C103.595718,8.71695767 103.305877,8.70701665 103.019277,8.73144317 C102.580981,8.76978711 102.146809,8.81125538 101.708218,8.84306665 C101.215724,8.87800225 100.734718,9.00723554 100.239574,9.01234807 C100.009233,9.01518836 99.7874337,9.08789984 99.5671075,9.11005412 C99.3685783,9.13050423 99.1865442,9.1322084 98.996557,9.17509682 C98.8165847,9.21514494 98.7096618,9.28814045 98.5450062,9.35545538 C98.4139299,9.4091369 98.25546,9.42049807 98.129391,9.46906707 C97.5158357,9.70424327 96.8368894,9.7153204 96.1862203,9.71475235 C95.6165535,9.71475235 95.1432058,9.81359452 94.5859102,9.92209368 C94.2875273,9.98031967 94.0188944,9.95986957 93.728759,10.1061446 C93.5970935,10.1720394 93.4884032,10.2893435 93.355854,10.3481375 C93.2182974,10.4097719 93.0654241,10.3901738 92.9184418,10.3975586 C92.7431824,10.4057955 92.55997,10.3887537 92.3944308,10.3813689 C92.0247659,10.3640432 91.8830856,10.4944126 91.5991358,10.6619898 C91.4665867,10.7406659 91.4059086,10.8233184 91.3107678,10.9366461 C91.1782186,11.0937142 91.1216643,11.0803649 90.9425757,11.0459973 C90.5720272,10.97499 90.1060432,10.8440526 89.7354947,10.9477232 C89.5269507,11.0059492 89.3410873,11.0343521 89.1272413,11.0343521 C88.8689178,11.0337841 88.6415223,11.0343521 88.3855552,11.0082214 C88.1393083,10.9826588 87.9484375,11.100815 87.728995,11.18858 C87.5119089,11.275777 87.1823034,11.2817416 86.9328164,11.295091 C86.6509285,11.3101445 86.4152856,11.3998977 86.1510709,11.4743134 C86.0247074,11.509249 85.8650593,11.558102 85.7475324,11.6220086 C85.3498849,11.840143 85.0806628,12.2122213 84.7124707,12.4658594 C84.5575355,12.5735065 84.3728503,12.685414 84.1922889,12.7672144 C84.0155567,12.8470267 83.8506067,12.8788379 83.679471,12.9802364 C83.5875702,13.0356221 83.4547265,13.1046412 83.3781426,13.1762165 C80.4962293,15.9028971 81.7150925,20.3618719 85.1578359,22.3046318 C87.416179,23.5782189 90.8942689,23.7020556 93.4138811,24.1252592 C95.5016776,24.4763193 97.6333626,24.6975781 99.7785971,24.8506698 L99.7785971,24.8506698 Z" id="Shape" fill="#EDEDED" sketch:type="MSShapeGroup"></path>
            <path d="M180.227393,25.6078917 C180.322829,25.4363381 180.404715,25.2417781 180.466571,25.0094422 C181.082188,22.7034089 179.361995,21.0412698 177.839741,19.5469921 C176.498638,18.2316527 174.087717,17.7985082 172.265018,17.5587875 C171.69653,17.4906205 170.985477,17.5587875 170.417872,17.5587875 C169.28119,17.5587875 168.854676,17.2165323 167.859968,16.805542 C167.006941,16.4632868 166.154797,16.5314538 165.301475,16.1891986 C164.236074,15.7782083 163.738278,15.435385 162.530903,15.3666499 C159.689049,15.2303159 156.20713,14.7503065 153.436558,15.7782083 C152.512543,16.1891986 152.157017,17.0108951 151.37586,17.6278066 C150.594115,18.2447181 149.883651,18.6557084 149.173188,19.3407869 C147.965518,20.5740418 146.331334,21.7382776 144.697445,22.4923751 C144.55547,22.5778679 144.435586,22.6764261 144.336616,22.7852093 C144.245599,22.8860397 144.174317,22.996527 144.118647,23.1141151 L144.116879,23.0925289 C143.358698,24.4334309 141.925989,24.9841636 140.5625,25.6081758 L180.227393,25.6081758 L180.227393,25.6078917 Z" id="Shape" fill="#DAD9D9" sketch:type="MSShapeGroup"></path>
            <path d="M300.622971,19.3691898 C300.248594,18.9965434 299.853303,18.6352583 299.471266,18.2685765 C298.966107,17.7848748 298.202035,17.7360217 297.587301,17.3869498 C296.906293,17.0015221 296.132795,16.718061 295.379916,16.4212504 C294.876523,16.2238501 294.396696,15.8963644 293.865026,15.8571684 C293.40022,15.8228009 292.881217,15.9648155 292.39756,15.9060214 C291.98165,15.8560323 291.564562,15.6498271 291.168093,15.4700366 C290.678544,15.2476417 290.105637,15.07552 289.655559,14.7897866 C289.224627,14.5156984 289.006658,14.4225368 288.514753,14.2455866 C288.059078,14.0836899 287.582196,13.9359947 287.078804,13.8340282 C286.393672,13.695422 285.880559,13.6494092 285.231952,13.3903746 C284.761255,13.200643 284.335625,13.0194324 283.826637,12.8853706 C283.280534,12.7416518 282.624858,12.7033079 282.079933,12.5141444 C281.909092,12.4542142 281.807177,12.3295254 281.649001,12.237784 C281.507026,12.1551315 281.405111,12.150587 281.274624,12.0841242 C280.974768,11.9304643 280.852823,11.6220086 280.583011,11.4532952 C280.175055,11.198237 279.566507,10.9778303 279.076958,10.848597 C278.767972,10.7665126 278.590945,10.712547 278.336451,10.5546268 C278.029231,10.362055 277.782395,10.3898898 277.447488,10.2833789 C277.200062,10.2047028 277.028043,10.0760375 276.690485,10.041954 C276.309627,10.0047462 275.964999,10.0570076 275.635982,9.83887312 C275.279867,9.60312886 275.108437,9.41169316 274.69076,9.30035371 C274.286337,9.19270663 273.968809,9.16828012 273.610337,8.94929358 C273.27484,8.74394045 273.017695,8.41276237 272.670416,8.23268784 C272.310177,8.04579661 271.820629,8.17616603 271.495736,8.00347626 C271.381154,7.94240997 271.327251,7.75892709 271.205306,7.68564755 C270.867158,7.4819986 270.22562,7.44053033 269.835042,7.42831707 C269.484818,7.41667188 269.126346,7.45217553 268.802926,7.30561645 C268.573469,7.20137772 268.416766,6.98324328 268.146366,6.93382219 C267.490984,6.8133938 266.770211,6.82617512 266.094799,6.79123952 C265.556944,6.76340466 265.144864,6.80118054 264.652665,6.59639547 C264.084176,6.36008315 263.504494,6.2691938 262.883575,6.18796144 C262.455,6.13200769 261.995201,6.19847052 261.563386,6.15586614 C260.852922,6.08599495 260.183107,5.9533533 259.456738,5.90165998 C258.193397,5.81247481 256.849938,6.01697585 255.584535,5.86786051 C255.002791,5.79969349 254.502934,5.66250737 253.915594,5.66250737 C251.69083,5.66193932 249.450749,5.59604454 247.225396,5.73294662 C245.62214,5.83178879 244.018001,5.65909902 242.41828,5.73351468 C240.905158,5.80395393 239.398516,6.10417282 237.880975,6.12121458 C237.272427,6.12831531 236.684498,6.15671823 236.079779,6.15671823 C235.417033,6.15671823 234.699501,6.14904944 234.042057,6.21096781 C233.462081,6.26521739 232.905374,6.43904328 232.306841,6.43904328 C231.511841,6.43904328 230.783999,6.29816478 229.99754,6.29816478 C229.124778,6.29816478 228.242295,6.33594067 227.389267,6.33310038 C226.678215,6.33082814 226.025778,6.47454693 225.31178,6.47454693 C224.705294,6.47454693 224.092033,6.45068848 223.486431,6.47454693 C223.068165,6.49130466 222.712638,6.68472856 222.307627,6.72193639 C222.07169,6.74352261 221.954457,6.65149714 221.748564,6.58872668 C221.352095,6.46659411 220.885522,6.50721029 220.476681,6.58048983 C220.028665,6.66087011 219.607454,6.86338294 219.147655,6.9261534 C218.775929,6.97671061 218.40214,6.88837752 218.029824,6.92331311 C217.686964,6.95540841 217.410672,7.03976509 217.056324,7.03749286 C216.24041,7.03181227 215.424791,7.01477052 214.609467,6.98920789 C213.009451,6.93978681 211.410908,6.85827042 209.81266,6.76851718 C208.648289,6.70347449 207.594965,6.66967501 206.448857,6.44784819 C205.312763,6.22772554 204.127479,6.15330988 202.956334,6.12064652 C202.298301,6.10246865 201.671785,6.0436746 201.027302,6.0135675 C199.689734,5.95193316 198.217554,5.47703629 196.933595,6.02350852 C196.721811,6.11326176 196.674093,6.19449412 196.412235,6.22772554 C196.249936,6.24760758 196.095884,6.24050685 195.935941,6.27032992 C195.621947,6.33026009 195.372755,6.5344771 195.081147,6.64808879 C194.734162,6.78357073 194.350064,6.83838837 193.986291,6.91763253 C193.531205,7.01761081 192.996885,7.30107198 192.53149,7.2167153 C192.231045,7.16303378 191.884355,7.04430956 191.615133,7.00369338 C191.210122,6.94205904 190.756804,7.0437415 190.351793,6.97046196 C190.013056,6.90939568 189.674614,6.68472856 189.337055,6.65036102 C188.866948,6.60264411 188.360315,6.66967501 187.884906,6.62366228 C187.513768,6.58759056 187.028933,6.56770852 186.669872,6.65916593 C186.35735,6.73841008 186.226863,6.90939568 185.973252,7.08236948 C185.579139,7.3507771 185.007411,7.85407689 184.509026,7.85180465 C184.130524,7.84953242 183.752023,7.85180465 183.373521,7.85180465 C182.764384,7.85180465 182.15672,7.75637083 181.546994,7.79187448 C181.021216,7.82226561 180.609724,8.10743095 180.201473,8.42582772 C180.001765,8.5811917 179.821793,8.7658107 179.598521,8.87232166 C179.178488,9.07199421 178.726348,8.97712845 178.317213,9.08534358 C178.037092,9.15919118 177.749902,9.31995172 177.439737,9.39834379 C176.430597,9.65198189 175.295681,9.90647207 174.399943,10.4651576 C173.790806,10.7917912 173.429978,11.334571 172.903022,11.7432891 C172.714802,11.8892801 172.465315,11.9406894 172.289172,12.0855443 C172.058536,12.2752758 172.011408,12.5766308 171.8117,12.7851083 C171.544245,13.0634569 171.339825,13.2083118 170.94424,13.268242 C170.219932,13.3773092 169.50829,13.1654234 169.041717,13.6922976 C168.809904,13.9530365 168.572199,14.2941556 168.355407,14.5500659 C168.161591,14.7781414 168.210487,14.7497384 167.955109,14.9178837 C167.775137,15.0354718 167.624325,15.0831888 167.441996,15.2547424 C167.088237,15.5881927 166.790149,15.7645749 166.404284,16.009124 C166.072322,16.2198737 165.965399,16.5260572 165.655823,16.786228 C165.185715,17.1801765 164.719731,17.1279152 164.110594,17.1279152 C163.85286,17.1279152 163.527672,17.077926 163.276418,17.1279152 C162.96802,17.1884134 162.915001,17.3270196 162.67111,17.4945969 C162.389222,17.6883048 161.999822,17.7803303 161.727066,17.9882397 C161.232805,18.3648624 160.758279,18.9019617 160.192147,19.2697795 L160.033971,19.3112478 C160.03456,19.3879357 159.796266,19.4271317 159.755618,19.5131926 C159.52999,19.9897936 158.32556,20.3025098 157.916425,20.6970264 C157.389468,21.2051547 156.994177,21.840244 156.46781,22.2847498 C155.743502,22.8562166 155.08488,22.79231 154.228613,23.0465162 C153.43862,23.3637768 152.648332,23.8719051 151.924025,24.3800334 C151.365551,24.7904556 150.817681,25.1915049 150.288957,25.6070396 L300.426209,25.6070396 C300.496313,25.5144461 300.561999,25.425545 300.624739,25.3406202 L300.624739,19.3691898 L300.622971,19.3691898 Z" id="Shape" fill="#CDCDCD" sketch:type="MSShapeGroup"></path>
            <path d="M129.750613,25.6078917 C129.142065,24.4595616 127.514066,24.2587529 126.261919,23.5103359 C125.398876,22.9934027 124.677809,22.2642997 123.747019,21.9609565 C122.545535,21.5698482 121.080425,21.7894028 119.833285,21.7894028 C116.809396,21.7894028 113.937793,20.5723376 111.026129,19.8506193 C110.110362,19.62368 107.536552,19.6324849 105.635502,18.991999 C104.940356,18.7579589 104.576287,18.1703024 103.945059,17.7311932 C102.123244,17.1568861 100.203638,16.3408702 98.2645911,15.8639851 C97.0793071,15.5739913 95.6642712,15.6143234 94.5028461,14.6645297 C93.7770658,14.5057573 93.2931141,14.1365193 92.3732229,13.5034182 C91.3926537,13.3923628 90.4353542,13.7229728 89.5661263,13.5034182 C89.0076525,13.3611196 88.5502107,12.5516363 88.1136821,12.0764554 C87.3879018,11.285434 86.3004096,10.9991325 85.267999,10.4572047 C84.2635709,9.93033053 83.2034722,10.0016219 82.1410171,9.43356341 C81.1195049,8.8882273 80.2087449,7.81033638 79.1783961,7.31896582 C77.3819132,6.46290173 75.0455134,8.27642834 72.4619831,7.57317198 C70.7079159,7.09543482 71.3736072,7.59703044 69.7694679,8.11850809 C67.6360155,8.81125538 63.2230123,9.28302792 61.0044339,9.90022343 C59.2589088,10.3861974 58.5728933,11.5893452 56.8465141,12.1818302 C54.1280782,13.1160023 52.3934515,11.654956 47.55364,13.9078758 C44.4307818,15.3612534 41.4873069,17.0049305 38.0021477,18.1305383 C35.2622093,19.0147213 33.4795705,21.7896868 30.9864681,23.1831342 C30.0076662,23.7301745 29.419737,23.9125213 29.0995572,25.1551491 C29.0618543,25.3017082 29.0385846,25.4536639 29.0229732,25.6078917 L129.750613,25.6078917 L129.750613,25.6078917 Z" id="Shape" fill="#D4D4D4" sketch:type="MSShapeGroup"></path>
            <path d="M300.811486,17.9440198 C300.784681,17.1279152 300.582323,15.8307537 300.035337,15.357561 C299.654479,15.027519 299.156978,15.1141479 298.751377,14.7877984 C298.264185,14.3961221 297.670954,14.1569694 297.095691,14.1649223 C296.339866,14.1737272 295.589638,14.7574072 294.861796,14.9565117 C294.19905,15.1385745 293.564581,15.3180809 292.890348,15.3609693 C291.959558,15.4197634 291.229949,16.2019799 290.310647,16.2852004 C289.910348,16.3207041 289.558062,16.2590697 289.179561,16.2303828 C288.833166,16.2042521 288.515637,16.4607305 288.1769,16.465559 C287.913864,16.4701035 287.619899,16.4067649 287.34508,16.407333 C286.949789,16.4079011 286.67556,16.2752594 286.289989,16.2752594 C285.713548,16.2752594 285.175103,16.2281106 284.611917,16.1874944 C284.092324,16.1497185 283.582157,16.3794981 283.063743,16.2795199 C282.325591,16.1375052 281.651947,15.4461781 280.94708,15.2178186 C280.628373,15.1141479 280.281978,14.9991161 279.951194,15.0002522 C279.527331,15.0019564 279.147062,15.1916879 278.731447,15.2232152 C278.056035,15.2754765 277.370904,15.1084674 276.671928,15.2198068 C275.777957,15.3635256 274.967935,15.7935458 274.085452,15.9227791 C273.75349,15.9716322 273.422117,15.9284597 273.098697,16.0014552 C272.061868,16.2371995 271.005893,16.3226923 269.973188,16.6155264 C269.106316,16.8623478 268.220888,17.2418109 267.313663,17.2418109 C266.543405,17.2418109 265.77462,17.1875613 265.00554,17.1642709 C264.690368,17.1548979 264.482118,17.243515 264.189332,17.3312801 C263.853246,17.4321105 263.493301,17.311398 263.153681,17.330144 C262.761335,17.3528663 262.528343,17.466478 262.147486,17.6729672 C261.473841,18.0385129 260.700049,18.6449153 260.005786,18.6943363 C259.662925,18.7187628 259.288842,18.6221929 258.968073,18.7769888 C258.545683,18.9795017 258.188684,19.1746298 257.753039,19.2663712 C257.377483,19.3456154 257.04611,19.5131926 256.684104,19.662876 C255.88498,19.9940541 255.107063,20.2005433 254.317365,20.5998884 C253.953297,20.7839394 253.515295,20.7441753 253.12943,20.7941644 C252.590397,20.8628995 252.07375,21.1526093 251.524407,21.1114251 C251.203933,21.0875666 250.881102,21.0469504 250.559155,21.023092 C249.406861,20.9398714 248.294626,21.334388 247.150579,21.3309796 C246.529955,21.3292755 245.989743,21.810705 245.362638,21.8584219 C244.641277,21.9132396 243.943479,21.8584219 243.224768,21.8163856 C243.076313,21.8075807 242.925501,21.7842903 242.777635,21.7859945 C242.584997,21.7871306 242.393832,21.8075807 242.201194,21.8075807 C242.077481,21.8075807 241.915771,21.7749173 241.810027,21.8825644 C241.764076,21.9297133 241.7087,21.9547078 241.663928,22.004697 C241.617388,22.0563903 241.613265,22.1268295 241.577624,22.1827833 C241.509876,22.2921345 241.362894,22.2694122 241.275117,22.2782171 C241.134615,22.2921345 240.994407,22.2875901 240.853905,22.2776491 C240.440941,22.2486781 240.11163,22.0674674 239.741965,21.8311551 C239.557869,21.713567 239.504849,21.6391514 239.294833,21.6391514 C239.132534,21.6391514 238.968762,21.664714 238.813826,21.5948428 C238.648582,21.5209952 238.518684,21.4190287 238.337533,21.4195968 C238.202333,21.4195968 238.06242,21.4266975 237.932522,21.4369225 C237.738706,21.45084 237.596436,21.5212792 237.417642,21.6110325 C237.043264,21.7996279 236.636486,21.7164073 236.263581,21.5883101 C236.134566,21.5434335 236.027054,21.6388673 235.900691,21.6621577 C235.708642,21.6965253 235.683899,21.4974208 235.549877,21.3582464 C235.435296,21.2383861 235.237945,21.285535 235.100094,21.266789 C234.916587,21.2412264 234.724538,21.2500313 234.546627,21.3312637 C234.393459,21.4005668 234.26415,21.5121903 234.106564,21.5780851 C233.939258,21.6496604 233.796399,21.6834599 233.603172,21.6834599 C232.876508,21.6834599 232.091817,21.4377746 231.423475,22.0180463 C231.158376,22.248394 230.799904,22.1052433 230.516249,22.2816255 C230.348943,22.38416 230.186644,22.5079968 230.019043,22.5832645 C229.849969,22.6599524 229.673237,22.6792664 229.505341,22.7880496 C229.39724,22.8573527 229.290611,22.9721005 229.184277,23.044812 C229.074409,23.1209318 228.902979,23.0948011 228.769546,23.0854282 C228.634346,23.0760552 228.504448,23.0382793 228.375433,23.0078882 C228.068803,22.9340406 227.803704,22.8636013 227.490005,23.0019236 C227.351859,23.0635579 227.228146,23.1638202 227.072328,23.199892 C226.88234,23.2430644 226.687935,23.2155136 226.495297,23.2442005 C226.301481,23.2731715 226.088518,23.4038249 225.909135,23.5083477 C225.58925,23.6946709 225.290572,24.1545142 224.950068,24.2118881 C224.706767,24.2525043 224.464055,24.2073436 224.220459,24.2118881 C224.011031,24.2158645 223.805138,24.2777829 223.59571,24.2777829 C223.317357,24.2777829 223.036648,24.2601731 222.758589,24.2772148 C222.426627,24.2976649 222.092308,24.3803174 221.769772,24.4325788 C221.565646,24.4646741 221.347971,24.4487685 221.150031,24.5192077 C220.961811,24.5868067 220.743842,24.5856705 220.562102,24.6950218 C220.463721,24.7538158 220.397447,24.8364684 220.291702,24.8864575 C219.971816,25.0389812 219.637498,25.0034775 219.304358,25.0034775 L217.432764,25.0034775 C216.89373,25.0034775 216.347039,24.959737 215.814486,25.0688043 C215.519932,25.1298705 215.243641,25.289495 214.974419,25.4772383 C214.920221,25.5144461 214.873092,25.561595 214.826553,25.6093119 L300.811486,25.5797728 C300.811486,25.5797728 300.833577,19.0394318 300.811486,17.9440198 Z" id="Shape" fill="#B3B3B3" sketch:type="MSShapeGroup"></path>
            <path d="M83.6900749,25.6078917 C82.6941889,25.0537507 81.6912336,24.5061424 80.6193528,24.1127619 C77.5374376,23.1220679 74.3412356,23.0115806 71.2584367,21.801048 C67.833661,20.3698247 64.0660249,19.3791308 60.412381,18.1680302 C55.6179307,16.7368069 51.0511704,16.4067649 46.1415496,15.9668037 C41.8808306,15.5845003 37.6351338,14.9826424 33.3484941,14.9559437 C29.6206227,14.9326533 25.7557838,15.2814412 22.0508876,15.6339214 C20.774881,15.7549179 19.447033,15.6367617 18.1704373,15.7708235 C15.721518,16.028722 13.1002848,17.0739496 11.2322253,18.6355423 C8.39832436,21.0049141 3.95233107,21.4343663 1.1310959,23.8929233 C0.448615012,24.4873964 -0.281583567,25.0355728 -1,25.6078917 L83.6900749,25.6078917 L83.6900749,25.6078917 Z" id="Shape" fill="#B3B3B3" sketch:type="MSShapeGroup"></path>
        </g>
    </g>
</svg>