<?xml version="1.0" encoding="utf-8"?>
<!-- Generator: Adobe Illustrator 17.1.0, SVG Export Plug-In . SVG Version: 6.00 Build 0)  -->
<!DOCTYPE svg PUBLIC "-//W3C//DTD SVG 1.1//EN" "http://www.w3.org/Graphics/SVG/1.1/DTD/svg11.dtd">
<svg version="1.1" id="Layer_1" xmlns="http://www.w3.org/2000/svg" xmlns:xlink="http://www.w3.org/1999/xlink" x="0px" y="0px"
	 viewBox="0 0 300 300" enable-background="new 0 0 300 300" xml:space="preserve">
<g>
	<path fill-rule="evenodd" clip-rule="evenodd" fill="#010202" d="M149.474,81.373l26.609,82.639
		c0.383,1.189,1.322,2.127,2.514,2.504c4.22,1.336,14.333,4.566,18.602,6.184c1.222,0.462,2.254,1.303,3.131,2.27
		c1.564,1.725,3.773,3.84,8.514,7.959c1.425,1.238,3.911,2.775,6.689,4.322l46.284-14.729l-36.668-115.23L149.474,81.373z"/>
	<path fill-rule="evenodd" clip-rule="evenodd" fill="#010202" d="M12.622,12.486v275.099h275.1V12.486H12.622z M73.428,243.169
		c-2.682,0.854-5.548-0.628-6.402-3.312l-39.76-124.945c-0.852-2.681,0.63-5.549,3.312-6.402L92.357,88.85l3.125,9.705
		l-56.954,18.123l36.668,115.229l41.944-13.347l3.125,9.704L73.428,243.169z M269.765,180.691l-41.203,13.111
		c0.936,0.436,1.496,0.688,1.496,0.688c3.589,1.137,7.445,1.974,11.546,2.358c6.67,0.624,9.116,1.409,9.138,4.458
		c0.045,4.997-2.84,14.318-13.056,16.635c-3.346,0.759-6.213,0.98-8.719,0.883c-8.596-0.336-12.9-4.463-17.306-3.855
		c-1.141,0.158-1.69,1.404-1.338,2.5l1.973,6.127l4.34,13.479c2.092,6.496-1.476,13.453-7.97,15.544
		c-3.249,1.046-6.61,0.669-9.425-0.775c-2.68-1.375-4.864-3.717-5.969-6.745c-0.158-0.436-0.783-0.375-0.887,0.076
		c-0.888,3.895-3.743,7.234-7.822,8.545c-1.631,0.525-3.29,0.666-4.889,0.487c-1.632-0.182-3.193-0.706-4.595-1.521
		c-2.415-1.402-4.346-3.657-5.271-6.525l-1.014-3.152c-0.119-0.371-0.656-0.318-0.717,0.066c-0.544,3.487-2.982,6.549-6.57,7.704
		c-2.985,0.961-6.087,0.387-8.475-1.272c-0.485-0.338-0.941-0.719-1.36-1.144c-1.029-1.043-1.843-2.329-2.323-3.82l-1.01-3.138
		c-0.044-0.135-0.282-0.174-0.275-0.031c0.181,3.359-1.9,6.545-5.255,7.625c-3.993,1.288-8.272-0.906-9.557-4.9l-5.486-17.038
		l-5.35-16.614l-1.097-3.405c-1.199-3.725-0.914-7.795,0.805-11.31l5.586-11.471l1.09-1.74c0.671-1.071,0.836-2.394,0.448-3.598
		L92.095,63.528c-0.338-1.051,0.24-2.178,1.291-2.516l28.703-9.242l14.271-4.596c1.051-0.339,2.178,0.239,2.517,1.291l7.472,23.204
		l80.566-25.637c2.68-0.854,5.549,0.63,6.401,3.311l39.76,124.945C273.93,176.972,272.446,179.838,269.765,180.691z"/>
</g>
</svg>
