<?xml version="1.0" encoding="utf-8"?>
<!-- Generator: Adobe Illustrator 17.1.0, SVG Export Plug-In . SVG Version: 6.00 Build 0)  -->
<!DOCTYPE svg PUBLIC "-//W3C//DTD SVG 1.1//EN" "http://www.w3.org/Graphics/SVG/1.1/DTD/svg11.dtd">
<svg version="1.1" id="Layer_1" xmlns="http://www.w3.org/2000/svg" xmlns:xlink="http://www.w3.org/1999/xlink" x="0px" y="0px"
	 viewBox="0 0 595.3 841.9" enable-background="new 0 0 595.3 841.9" xml:space="preserve">
<g>
	<path fill="#7E7E7E" d="M296.6,284.8l52.8,164c0.8,2.4,2.6,4.2,5,5c8.4,2.7,28.4,9.1,36.9,12.3c2.4,0.9,4.5,2.6,6.2,4.5
		c3.1,3.4,7.5,7.6,16.9,15.8c2.8,2.5,7.8,5.5,13.3,8.6l91.8-29.2L446.8,237L296.6,284.8z"/>
	<path fill="#7E7E7E" d="M25,148.1V694h545.9V148.1H25z M145.7,605.8c-5.3,1.7-11-1.2-12.7-6.6L54.1,351.3c-1.7-5.3,1.3-11,6.6-12.7
		l122.6-39l6.2,19.3l-113,36l72.8,228.6l83.2-26.5l6.2,19.3L145.7,605.8z M535.3,481.8l-81.8,26c1.9,0.9,3,1.4,3,1.4
		c7.1,2.3,14.8,3.9,22.9,4.7c13.2,1.2,18.1,2.8,18.1,8.8c0.1,9.9-5.6,28.4-25.9,33c-6.6,1.5-12.3,1.9-17.3,1.8
		c-17.1-0.7-25.6-8.9-34.3-7.6c-2.3,0.3-3.4,2.8-2.7,5l3.9,12.2l8.6,26.7c4.2,12.9-2.9,26.7-15.8,30.8c-6.4,2.1-13.1,1.3-18.7-1.5
		c-5.3-2.7-9.7-7.4-11.8-13.4c-0.3-0.9-1.6-0.7-1.8,0.2c-1.8,7.7-7.4,14.4-15.5,17c-3.2,1-6.5,1.3-9.7,1c-3.2-0.4-6.3-1.4-9.1-3
		c-4.8-2.8-8.6-7.3-10.5-12.9l-2-6.3c-0.2-0.7-1.3-0.6-1.4,0.1c-1.1,6.9-5.9,13-13,15.3c-5.9,1.9-12.1,0.8-16.8-2.5
		c-1-0.7-1.9-1.4-2.7-2.3c-2-2.1-3.7-4.6-4.6-7.6l-2-6.2c-0.1-0.3-0.6-0.3-0.5-0.1c0.4,6.7-3.8,13-10.4,15.1
		c-7.9,2.6-16.4-1.8-19-9.7l-10.9-33.8l-10.6-33l-2.2-6.8c-2.4-7.4-1.8-15.5,1.6-22.4l11.1-22.8l2.2-3.5c1.3-2.1,1.7-4.8,0.9-7.1
		l-73.7-229c-0.7-2.1,0.5-4.3,2.6-5l57-18.3l28.3-9.1c2.1-0.7,4.3,0.5,5,2.6l14.8,46l159.9-50.9c5.3-1.7,11,1.3,12.7,6.6l78.9,247.9
		C543.6,474.5,540.6,480.2,535.3,481.8z"/>
</g>
</svg>
