<?xml version="1.0" encoding="UTF-8" standalone="no"?>
<svg width="546px" height="546px" viewBox="0 0 546 546" version="1.1" xmlns="http://www.w3.org/2000/svg" xmlns:xlink="http://www.w3.org/1999/xlink" xmlns:sketch="http://www.bohemiancoding.com/sketch/ns">
    <!-- Generator: Sketch 3.1.1 (8761) - http://www.bohemiancoding.com/sketch -->
    <title>classroom</title>
    <desc>Created with Sketch.</desc>
    <defs></defs>
    <g id="Page-1" stroke="none" stroke-width="1" fill="none" fill-rule="evenodd" sketch:type="MSPage">
        <g id="classroom" sketch:type="MSLayerGroup" fill="#7E7E7E">
            <g id="Group" sketch:type="MSShapeGroup">
                <path d="M271.6,136.8 L324.4,300.8 C325.2,303.2 327,305 329.4,305.8 C337.8,308.5 357.8,314.9 366.3,318.1 C368.7,319 370.8,320.7 372.5,322.6 C375.6,326 380,330.2 389.4,338.4 C392.2,340.9 397.2,343.9 402.7,347 L494.5,317.8 L421.8,89 L271.6,136.8 L271.6,136.8 Z" id="Shape"></path>
                <path d="M0,0.1 L0,546 L545.9,546 L545.9,0.1 L0,0.1 L0,0.1 Z M120.7,457.8 C115.4,459.5 109.7,456.6 108,451.2 L29.1,203.3 C27.4,198 30.4,192.3 35.7,190.6 L158.3,151.6 L164.5,170.9 L51.5,206.9 L124.3,435.5 L207.5,409 L213.7,428.3 L120.7,457.8 L120.7,457.8 Z M510.3,333.8 L428.5,359.8 C430.4,360.7 431.5,361.2 431.5,361.2 C438.6,363.5 446.3,365.1 454.4,365.9 C467.6,367.1 472.5,368.7 472.5,374.7 C472.6,384.6 466.9,403.1 446.6,407.7 C440,409.2 434.3,409.6 429.3,409.5 C412.2,408.8 403.7,400.6 395,401.9 C392.7,402.2 391.6,404.7 392.3,406.9 L396.2,419.1 L404.8,445.8 C409,458.7 401.9,472.5 389,476.6 C382.6,478.7 375.9,477.9 370.3,475.1 C365,472.4 360.6,467.7 358.5,461.7 C358.2,460.8 356.9,461 356.7,461.9 C354.9,469.6 349.3,476.3 341.2,478.9 C338,479.9 334.7,480.2 331.5,479.9 C328.3,479.5 325.2,478.5 322.4,476.9 C317.6,474.1 313.8,469.6 311.9,464 L309.9,457.7 C309.7,457 308.6,457.1 308.5,457.8 C307.4,464.7 302.6,470.8 295.5,473.1 C289.6,475 283.4,473.9 278.7,470.6 C277.7,469.9 276.8,469.2 276,468.3 C274,466.2 272.3,463.7 271.4,460.7 L269.4,454.5 C269.3,454.2 268.8,454.2 268.9,454.4 C269.3,461.1 265.1,467.4 258.5,469.5 C250.6,472.1 242.1,467.7 239.5,459.8 L228.6,426 L218,393 L215.8,386.2 C213.4,378.8 214,370.7 217.4,363.8 L228.5,341 L230.7,337.5 C232,335.4 232.4,332.7 231.6,330.4 L157.9,101.4 C157.2,99.3 158.4,97.1 160.5,96.4 L217.5,78.1 L245.8,69 C247.9,68.3 250.1,69.5 250.8,71.6 L265.6,117.6 L425.5,66.7 C430.8,65 436.5,68 438.2,73.3 L517.1,321.2 C518.6,326.5 515.6,332.2 510.3,333.8 L510.3,333.8 Z" id="Shape"></path>
            </g>
        </g>
    </g>
</svg>