<?xml version="1.0" encoding="UTF-8" standalone="no"?>
<svg width="547px" height="546px" viewBox="0 0 547 546" version="1.1" xmlns="http://www.w3.org/2000/svg" xmlns:xlink="http://www.w3.org/1999/xlink" xmlns:sketch="http://www.bohemiancoding.com/sketch/ns">
    <!-- Generator: Sketch 3.1.1 (8761) - http://www.bohemiancoding.com/sketch -->
    <title>nettkurs</title>
    <desc>Created with Sketch.</desc>
    <defs></defs>
    <g id="Page-1" stroke="none" stroke-width="1" fill="none" fill-rule="evenodd" sketch:type="MSPage">
        <g id="nettkurs" sketch:type="MSLayerGroup" fill="#7E7E7E">
            <g id="Group" sketch:type="MSShapeGroup">
                <path d="M270.7,97.4 C271.5,97.7 272.3,97.9 273.2,97.9 C274.1,97.9 274.9,97.7 275.7,97.4 C278.6,96.4 280.6,93.7 280.6,90.4 C280.6,86.3 277.3,83 273.2,83 C269.1,83 265.8,86.3 265.8,90.4 C265.7,93.7 267.8,96.4 270.7,97.4 L270.7,97.4 Z" id="Shape"></path>
                <path d="M467.5,101 L78.9,101 L78.9,340.9 L399.2,340.9 C399.2,340.9 428.7,340 427,320.8 C426.3,312.3 414.1,299.6 375.1,292 C375.1,292.1 457.7,228 467.5,101 L467.5,101 Z M129.4,146.1 L396.3,146.1 C401,146.1 404.7,149.4 404.7,153.5 C404.7,157.6 400.9,160.9 396.3,160.9 L129.4,160.9 C124.7,160.9 121,157.6 121,153.5 C121,149.4 124.8,146.1 129.4,146.1 L129.4,146.1 Z M284.6,269.7 L129.4,269.7 C124.7,269.7 121,266.4 121,262.3 C121,258.2 124.8,254.9 129.4,254.9 L284.6,254.9 C289.3,254.9 293,258.2 293,262.3 C293.1,266.4 289.3,269.7 284.6,269.7 L284.6,269.7 Z M129.4,215.4 C124.7,215.4 121,212.1 121,208 C121,203.9 124.8,200.6 129.4,200.6 L396.3,200.6 C401,200.6 404.7,203.9 404.7,208 C404.7,212.1 400.9,215.4 396.3,215.4 L129.4,215.4 L129.4,215.4 Z" id="Shape"></path>
                <path d="M0.2,0.1 L0.2,546 L546.1,546 L546.1,0.1 L0.2,0.1 L0.2,0.1 Z M361.8,465.3 L184.6,465.3 C176.5,465.3 169.9,458.7 169.9,450.6 C169.9,446.4 171.7,442.6 174.5,440 C177.3,436.7 182.2,432.3 188.2,425.1 C197.4,414 200.1,392.6 200.8,378.1 L345.7,378.1 C346.4,392.6 349.1,414.1 358.3,425.1 C366.6,435.2 373,439.6 374.3,443.3 C375.5,445.6 376.5,447.9 376.5,450.6 C376.5,458.7 369.9,465.3 361.8,465.3 L361.8,465.3 Z M487.7,351 C487.7,356.6 483.2,361.1 477.6,361.1 L68.8,361.1 C63.2,361.1 58.7,356.6 58.7,351 L58.7,90.9 C58.7,85.3 63.2,80.8 68.8,80.8 L477.6,80.8 C483.2,80.8 487.7,85.3 487.7,90.9 L487.7,351 L487.7,351 Z" id="Shape"></path>
            </g>
        </g>
    </g>
</svg>