<?xml version="1.0" encoding="utf-8"?>
<!-- Generator: Adobe Illustrator 17.1.0, SVG Export Plug-In . SVG Version: 6.00 Build 0)  -->
<!DOCTYPE svg PUBLIC "-//W3C//DTD SVG 1.1//EN" "http://www.w3.org/Graphics/SVG/1.1/DTD/svg11.dtd">
<svg version="1.1" id="Layer_1" xmlns="http://www.w3.org/2000/svg" xmlns:xlink="http://www.w3.org/1999/xlink" x="0px" y="0px"
	 viewBox="0 0 300 300" enable-background="new 0 0 300 300" xml:space="preserve">
<g>
	<path fill-rule="evenodd" clip-rule="evenodd" fill="#010202" d="M149.008,61.537c0.387,0.164,0.812,0.254,1.26,0.254
		c0.447,0,0.873-0.091,1.26-0.255c1.445-0.519,2.485-1.889,2.485-3.513c0-2.069-1.677-3.746-3.746-3.746
		c-2.068,0-3.746,1.677-3.746,3.746C146.52,59.648,147.561,61.018,149.008,61.537z"/>
	<path fill-rule="evenodd" clip-rule="evenodd" fill="#010202" d="M248.188,63.333H52.347v120.923h161.426
		c0,0,14.865-0.447,14.032-10.115c-0.367-4.26-6.5-10.666-26.167-14.5C201.638,159.641,243.239,127.348,248.188,63.333z
		 M77.837,86.072H212.33c2.351,0,4.252,1.679,4.252,3.747c0,2.066-1.901,3.746-4.252,3.746H77.837c-2.346,0-4.252-1.68-4.252-3.746
		C73.585,87.751,75.491,86.072,77.837,86.072z M156.035,148.381H77.837c-2.346,0-4.252-1.678-4.252-3.746
		c0-2.064,1.906-3.745,4.252-3.745h78.198c2.352,0,4.253,1.68,4.253,3.745C160.288,146.703,158.388,148.381,156.035,148.381z
		 M77.837,120.976c-2.346,0-4.252-1.68-4.252-3.745c0-2.067,1.906-3.748,4.252-3.748H212.33c2.351,0,4.252,1.681,4.252,3.748
		c0,2.065-1.901,3.745-4.252,3.745H77.837z"/>
	<path fill-rule="evenodd" clip-rule="evenodd" fill="#010202" d="M12.717,12.486v275.1h275.1v-275.1H12.717z M194.93,246.934
		h-89.314c-4.065,0-7.404-3.342-7.404-7.43c0-2.104,0.923-4.018,2.327-5.367c1.421-1.643,3.881-3.863,6.88-7.5
		c4.612-5.572,5.978-16.381,6.355-23.693h73.029c0.373,7.312,1.738,18.121,6.356,23.693c4.207,5.086,7.409,7.305,8.065,9.174
		c0.629,1.152,1.099,2.32,1.099,3.693C202.323,243.592,199.011,246.934,194.93,246.934z M258.383,189.354
		c0,2.816-2.283,5.098-5.097,5.098H47.248c-2.814,0-5.097-2.281-5.097-5.098V58.235c0-2.813,2.282-5.097,5.097-5.097h206.038
		c2.813,0,5.097,2.284,5.097,5.097V189.354z"/>
</g>
</svg>
