<?xml version="1.0" encoding="utf-8"?>
<!-- Generator: Adobe Illustrator 17.1.0, SVG Export Plug-In . SVG Version: 6.00 Build 0)  -->
<!DOCTYPE svg PUBLIC "-//W3C//DTD SVG 1.1//EN" "http://www.w3.org/Graphics/SVG/1.1/DTD/svg11.dtd">
<svg version="1.1" id="Layer_1" xmlns="http://www.w3.org/2000/svg" xmlns:xlink="http://www.w3.org/1999/xlink" x="0px" y="0px"
	 viewBox="0 0 595.3 841.9" enable-background="new 0 0 595.3 841.9" xml:space="preserve">
<rect x="35" y="157.9" fill="#7E7E7E" width="536.1" height="536.1"/>
<path fill="#7E7E7E" d="M25.2,148.1V694h545.9V148.1H25.2L25.2,148.1z M386.8,613.3H209.6c-8.1,0-14.7-6.6-14.7-14.7
	c0-4.2,1.8-8,4.6-10.6c2.8-3.3,7.7-7.7,13.7-14.9c9.2-11.1,11.9-32.5,12.6-47h144.9c0.7,14.5,3.4,36,12.6,47
	c8.3,10.1,14.7,14.5,16,18.2c1.2,2.3,2.2,4.6,2.2,7.3C401.5,606.7,394.9,613.3,386.8,613.3z M512.7,499c0,5.6-4.5,10.1-10.1,10.1
	H93.8c-5.6,0-10.1-4.5-10.1-10.1V238.9c0-5.6,4.5-10.1,10.1-10.1h408.8c5.6,0,10.1,4.5,10.1,10.1L512.7,499L512.7,499z"/>
<text transform="matrix(1 0 0 1 151.8916 569.5502)" fill="#FFFFFF" font-family="'FontAwesome'" font-size="432.9853"></text>
</svg>
