<?xml version="1.0" encoding="utf-8"?>
<!-- Generator: Adobe Illustrator 17.1.0, SVG Export Plug-In . SVG Version: 6.00 Build 0)  -->
<!DOCTYPE svg PUBLIC "-//W3C//DTD SVG 1.1//EN" "http://www.w3.org/Graphics/SVG/1.1/DTD/svg11.dtd">
<svg version="1.1" id="Layer_1" xmlns="http://www.w3.org/2000/svg" xmlns:xlink="http://www.w3.org/1999/xlink" x="0px" y="0px"
	 viewBox="0 0 300 300" enable-background="new 0 0 300 300" xml:space="preserve">
<path fill-rule="evenodd" clip-rule="evenodd" fill="#010202" d="M12.622,12.193v275.1h275.099v-275.1H12.622z M79.607,53.486
	c0-2.812,2.284-5.097,5.097-5.097h27.812c-6.586,6.114-18.676,16.477-32.908,24.704V53.486z M84.704,234.621
	c-2.812,0-5.097-2.281-5.097-5.096v-49.468l29.205,54.563H84.704z M169.808,234.661c-13.906,12.908-40.446,22.435-40.446,22.435
	l-12.007-22.435l-2.629-4.915l-36.847-68.834l-4.719-8.821L41.422,92.795c10.617,0.127,21.507-3.088,31.738-7.847
	c1.589-0.736,3.165-1.518,4.719-2.329c17.666-9.157,32.825-22.243,40.333-29.267c3.225-3.019,5.043-4.923,5.043-4.923
	s0.532,1.753,1.471,4.923c1.658,5.582,4.605,15.533,8.231,28.012h65.91c2.346,0,4.252,1.678,4.252,3.746
	c0,2.066-1.906,3.746-4.252,3.746h-63.729c0.035,0.119,0.068,0.234,0.103,0.354c1.252,4.371,2.58,8.961,3.937,13.713
	c0.541,1.925,1.103,3.885,1.662,5.851h34.027c2.346,0,4.252,1.68,4.252,3.748c0,2.064-1.906,3.744-4.252,3.744h-31.908
	c0.724,2.566,1.451,5.155,2.179,7.772c0.69,2.414,1.367,4.856,2.036,7.306c0.804,2.88,1.594,5.773,2.387,8.662h53.557v55.214H163.91
	c3.666,15.455,6.169,27.945,6.535,34.525C170.604,232.404,170.404,234.109,169.808,234.661z M232.92,229.525
	c0,2.814-2.281,5.096-5.098,5.096h-50.07c0.309-1.747,0.296-3.571,0.193-5.291c-0.078-1.396-0.243-3.039-0.487-4.904h45.266V58.584
	H134.11c-0.829-2.806-1.562-5.277-2.181-7.364c-0.335-1.13-0.615-2.071-0.842-2.83h96.735c2.816,0,5.098,2.284,5.098,5.097V229.525z
	"/>
</svg>
